<svg clip-rule="evenodd" fill-rule="evenodd" stroke-linejoin="round" stroke-miterlimit="2" viewBox="0 0 311 255" xmlns="http://www.w3.org/2000/svg"><path d="m-9.087-10.734h337.929v280.455h-337.929z" fill="#ffffff"/><path d="m88.069 24.812c1.034.041 2.352-.199 2.875.36v1.796c-.523.196-1.859-.421-1.797.36-.979-.532-1.628-1.389-1.078-2.516z"/><path d="m90.584 28.047h2.516c.174 1.372-.103 2.293-.718 2.875-.848-.465-.67.046-1.797-.36-.001-.838-.001-1.678-.001-2.515z"/><path d="m82.317 37.033c1.518.12 1.872 1.802 1.438 2.875-1.566.485-1.3-.857-2.156-1.079-.267-1.106.986-.691.718-1.796z"/><path d="m149.89 38.829c1.059.14.703 1.693 1.438 2.155-.232.366-.826.372-.718 1.08-2.002-.948-2.025-.216-4.312 0-.414-.424-.408-1.27-.36-2.156 2.46.436 2.8-1.1 3.95-1.079z"/><path d="m164.26 39.548c.117.843.567 1.349.359 2.516h-1.796c-.61-1.217-.33-2.721 1.44-2.516z"/><path d="m76.927 39.908c1.162.395 1.972 1.144 1.797 2.875-1.136.562-1.578-.199-2.875-.359-.367-1.566.743-1.653 1.078-2.516z"/><path d="m84.834 39.908h2.515c.146 1.702-.776 2.337-2.515 2.156z"/><path d="m153.48 39.908c.598-.003 1.198 0 1.797 0 .539 1.141.539 2.925-1.08 2.875-.62-.582-.89-1.504-.72-2.875z"/><path d="m70.817 40.268c1.249.187 1.67 1.202 2.516 1.796-.19.29-.375.582-.358 1.079-.464.494-1.562.354-2.517.357.016-.614-.266-.93-.718-1.076.142-.937 1.071-1.086 1.077-2.156z"/><path d="m79.802 42.063c1.314.123 2.838.038 2.875 1.436-.224 1.617-1.637 1.249-2.875 1.079z"/><path d="m141.26 43.143c1.372-.175 2.294.1 2.875.717-.275 1.044-.569 2.068-1.438 2.515 1.19 1.065 1.19 2.533 0 3.595-.75-.567-1.803-.831-1.797-2.156.481-.453.707-1.079 1.438-.359.29-2.086-1.71-1.888-1.08-4.312z"/><path d="m145.57 43.143c.714.597.458-.035 1.438 0 .005.714.981.457.72 1.436.965.249.695-.743 1.078-1.079 1.853.123 2.604 2.249 1.797 3.955-2.142.465-2.006-1.349-2.517-2.516-.945-.105-.282 1.395-1.438 1.079.362-1.082-.8-.637-1.438-.719-.25-1.1.37-1.311.36-2.156z"/><path d="m161.39 43.5c1.234-.035 2.58-.184 2.872.72-.152.564-1.129.307-.72 1.439h-1.796c-.41-.428-.4-1.273-.35-2.159z"/><path d="m156.715 43.859h1.801c.497.465.356 1.562.359 2.515-1.7 1.024-3.14-.871-2.16-2.515z"/><path d="m153.48 44.579c1.338-.021 1.037 1.6 1.078 2.875-.569.029-1.37-.173-1.438.359-.731-.345-.776-1.38-.718-2.515.72.123 1.13-.073 1.08-.719z"/><path d="m139.46 47.813v1.796c-1.886-.208-1.164 2.191-1.797 3.235-.819.495-1.35-.924-1.438 0-.861.144.2-1.635-1.078-1.076.345-1.448 1.375-1.138 2.157-1.439.262-.98-.715-.723-.719-1.436-.688 1.073-1.031.26-2.156.716-1.83-3.351 2.72-1.801 5.04-1.796z"/><path d="m147.01 47.094c.556.523.317 1.84.36 2.875-3.28.951-3.91-3.685-.36-2.875z"/><path d="m156.72 48.533c1.418.018 2.138.737 2.155 2.156-.798-.199-.512.687-1.079.719-.644.044-.755-.441-1.437-.36-.21-1.167.24-1.673.36-2.515z"/><path d="m129.76 48.893c1.574.284 1.676 2.231.718 3.235-1.015.295-.93-.509-1.797-.36-.36-1.685.59-2.044 1.08-2.875z"/><path d="m148.45 50.329c1.291.199 2.388.114 2.517 2.155-1.15 1.612-3.85-.231-2.52-2.155z"/><path d="m132.28 50.689c1.099-.261 1.311.368 2.157.359-.2 1.357-.51 2.606-2.517 2.156 0-.954-.14-2.053.36-2.515z"/><path d="m142.34 53.204c-1.019-.062-.7 1.217-2.155.72-.414-.424-.407-1.27-.36-2.156 1.48-.699 2.72-1.102 2.52 1.436z"/><path d="m143.78 51.048h2.157c-.147.866.657.781.36 1.796-.99.433-1.502.781-2.517.36-.04-1.342-.41-1.024 0-2.156z"/><path d="m154.2 51.048c.82.749 1.856 1.498 1.08 2.875-1.643.205-2.051-.825-2.157-2.156.72.121 1.12-.072 1.08-.719z"/><path d="m162.82 52.128c-.157 2.957-2.77 3.457-3.954 5.39-1.032-.167-1.979-.415-2.155-1.439 1.42-1.907 2.8-5.031 6.1-3.951z"/><path d="m128.32 56.079c-1.998.322-2.354-1-2.157-2.875 2.06-1.793 2.8.995 2.16 2.875z"/><path d="m136.95 53.924c-.391 2.179 1.848 3.934 0 5.39-1.017.059-.838-1.079-1.797-1.076.82-1.91-.358-2.357-.718-3.955.47-.497 1.56-.356 2.52-.359z"/><path d="m146.65 53.924c.886-.047 1.731-.056 2.157.359.041 1.755-1.16 2.82-2.516 2.156.01-.954-.13-2.053.36-2.515z"/><path d="m131.92 54.283c.414 1.536-.032 2.972-2.156 2.875-.4-1.155-.16-3.398 2.16-2.875z"/><path d="m141.62 55.719c1.591-.392 1.787.611 2.875.72-.521 2.115-2.324 2.948-4.672 3.235-.414-.424-.407-1.27-.36-2.156 1.39.079 2.48-.149 2.15-1.799z"/><path d="m162.46 56.439c.887-.047 1.731-.056 2.155.36.343 1.977-1.283 2.387-2.515 1.796-.26-1.097.63-1.056.36-2.156z"/><path d="m147.37 57.159c1.34.576.816 3.018 3.235 2.515-.19 2.767 2.039 4.417 1.078 6.83-3.653.059-1.672-5.516-4.673-6.11-.11-1.644-.37-1.996.36-3.235z"/><path d="m126.52 57.518c1.256.761 2.494 2.498 1.078 3.952-1.56.47-2.48-2.498-1.08-3.952z"/><path d="m130.48 58.238c1.699-.144 2.59.523 2.517 2.156-1.765.149-1.37.374-2.876 0-.26-1.101.62-1.06.36-2.156z"/><path d="m158.87 58.595c1.489-.41 1.401.757 2.519.719-.322 1.372.585 2.293 0 2.875-1.193-.439-1.129.023-2.878-.36-.11-1.307.06-2.336.36-3.234z"/><path d="m64.707 59.674c.886-.047 1.731-.056 2.157.36.553 1.132.123 2.208-1.079 2.515-1.337.02-1.035-1.6-1.078-2.875z"/><path d="m51.049 60.034c1.116-.038 1.027 1.132 2.517.719.171 1.129-.512 1.404-.72 2.156-1.114-.003-.945-.547-2.157-1.079-.296-1.016.508-.931.36-1.796z"/><path d="m136.59 60.034c1.97.003 3.304 1.547 2.515 3.235-1.443.125-2.629-.006-2.875-1.079-.664.055-.219 1.216-.718 1.439-4.124.196-.663-5.154.359-1.799.8-.053.78-.904.73-1.796z"/><path d="m163.18 60.034c2.825 1.521-.267 3.027.72 6.11h-1.439c-.912-2.015 1.117-3.41-.359-5.391.53-.836 1.14.702 1.08-.719z"/><path d="m143.78 60.394c1.188.728 2.378 1.457 2.157 3.594-1.154.992-2.315.775-3.235 0 .02-1.541.38-2.729 1.08-3.594z"/><path d="m156 60.394c.749.567 1.802.831 1.796 2.155-.805.152-1.144.772-1.796 1.08-1.53-.253-1.35-2.955 0-3.235z"/><path d="m68.302 61.83c1.358-.521.688.988 1.797.719.134 4.317-4.687 1.53-1.797-.719z"/><path d="m127.96 62.909c1.107-.269.438 1.24 1.797.72.136 1.693-.029 3.085-1.797 2.875-.46-1.045-.46-2.551 0-3.595z"/><path d="m154.2 66.863c-.519-.799-1.825-.813-1.438-2.519 2.14-1.391 3.32 1.759 1.44 2.519z"/><path d="m157.44 64.345c1.708-.269 1.968.907 2.872 1.439-.229 1.085-.986 1.647-2.516 1.439.497-1.457-.778-1.138-.72-2.158.35-.009.28-.44.37-.72z"/><path d="m132.28 65.064c1.429-.111 1.945.69 1.798 2.158-1.828.468-.907 1.468-1.798 2.875-1.369-.123-1.946-.26-2.157-2.159 1.65-.025 1.41-1.943 2.16-2.874z"/><path d="m134.79 65.064h2.875v2.158h-2.155c-.2-.751-.88-1.026-.71-2.158z"/><path d="m140.177 65.064h2.158c-.172 1.132 1.104.813.72 2.158-1.163-.444-.275 1.162-1.438.717-1.24-.195-1.64-1.237-1.44-2.875z"/><path d="m145.21 65.784c1.098-.26 1.31.369 2.157.36.047.886.054 1.731-.36 2.156-1.098.26-1.309-.369-2.155-.36-.05-.887-.06-1.732.35-2.156z"/><path d="m153.84 67.223c1.418.018 2.138.734 2.156 2.156-.35.009-.279.439-.359.72-1.647-.196-1.675.073-2.516-1.08-.27-1.106.99-.69.72-1.796z"/><path d="m163.9 67.223c1.479.029 1.067 1.945.716 2.875-1.787.348-2.334-.541-2.155-2.159.64-.082 1.81.363 1.44-.716z"/><path d="m149.89 67.58c.895-.053 1.113.564 1.797.72-.549 2.585.953 3.121.719 5.39h-2.157c.061-1.015-.309-2.465.719-2.515-.562-.518-1.252-.904-1.439-1.796-.3-1.015.5-.934.36-1.799z"/><path d="m134.061 68.299h.727c1.179.26 1.404 1.471 1.438 2.875-.954-.003-2.052.138-2.515-.36-.22-1.167.24-1.669.35-2.515z"/><path d="m158.87 68.299c.893.175 2.027.085 2.519 1.439-.012 1.304-1.059 1.58-2.519 1.436-.41-1.006-.41-1.869 0-2.875z"/><path d="m143.78 69.019c1.29.506 2.528 1.065 2.157 3.235-.418-.058-.639.079-.719.36-1.8-.027-2.88-2.461-1.44-3.595z"/><path d="m138.74 69.738c1.013-.067.901 1.413 1.438 0 1.753 1.328-1.59 2.934.358 4.671-.809.629-1.196 1.679-2.875 1.439-.798-1.082-.422-1.255-.358-2.875.79.942 1.193-1.117 2.156 0-1.02-1.205-1.72-1.492-.72-3.235z"/><path d="m147.37 69.738c1.4.497 1.958 1.281 1.438 2.875-2.63.304-2.83-1.766-1.44-2.875z"/><path d="m156.72 70.455c.985.333 1.503 1.135 1.796 2.159-.579.497-.884 1.27-2.156 1.076-.286-.669-.601-1.316-.719-2.155.33-.384 1.32-.112 1.08-1.08z"/><path d="m65.067 74.409c-1.141.298-.916 1.959-2.875 1.439-1.701-2.664 2.569-4.603 2.875-1.439z"/><path d="m146.649 74.409h2.158c.519 1.158.029 2.706-1.798 2.516-.52-.898-.87-1.41-.36-2.516z"/><path d="m153.12 74.409h1.438c.31 1.383.785 3.2-1.078 3.235-.3-.895-.47-1.924-.36-3.235z"/><path d="m143.78 74.769h2.157c.198 1.875-.159 3.194-2.157 2.875-.55-1.144-.13-1.582 0-2.875z"/><path d="m66.504 77.644c.169 1.129-.968.951-1.078 1.796-1.26-.295-1.755-1.36-1.797-2.875 1.613-.544 1.916.196 2.875 1.079z"/><path d="m140.18 76.208c1.243-.287 1.517.398 2.155.717-.12.839-.368 1.55-1.078 1.798-1.5-.012-1.62-1.401-1.08-2.515z"/><path d="m50.689 76.925c.464.617 1.182.977 2.157 1.079.276 1.354-.438 1.717-.36 2.875-.614.076-.93-.611-1.078 0-1.189-1.123-.793-2.033-.719-3.954z"/><path d="m44.581 79.44c.158 1.597-.92 1.957-2.517 1.799.009-.848-.619-1.059-.36-2.156 1.074-.605 2.327-.951 2.877.357z"/><path d="m56.082 79.44c.155-.801 1.771-.144 2.516-.357-.059.416.079.638.359.717-.048 1.152-.814 1.582-2.157 1.439-.677-.717-.337-1.536-.718-1.799z"/><path d="m110.35 79.083c1.455-.497 1.136.778 2.156.717-.287.672-.6 1.316-.718 2.158-.616.073-.932-.614-1.079 0-1.03-.547-1.21-2.331-.36-2.875z"/><path d="m113.94 80.16c.306-.064.339.14.36.359.251-.266 2.12-.041 2.515 1.439-.559.638-1.011 1.384-2.515 1.077-.55-.521-.31-1.84-.36-2.875z"/><path d="m120.78 82.315v2.159c-.918.617-1.258-.413-1.797.36-.74-.1-.338-1.34-1.078-1.439.92-.647 1.46-1.896 2.88-1.08z"/><path d="m102.8 82.315c.667.652.82 1.816 1.078 2.878-1.129.246-1.468-.043-1.797.357-1.02-.644-1.9-3.691.72-3.235z"/><path d="m105.68 83.035h4.672c.244 2.676-2.609 2.811-4.672 2.158-.32-1.053-.32-1.106 0-2.158z"/><path d="m97.054 84.833c1.591-.395 1.787.608 2.875.716.146.866-.656.784-.359 1.799-.863.304-.952.231-2.516.36-.414-1.009-.414-1.869 0-2.875z"/><path d="m111.07 85.55h3.235c.402 1.72-.887 1.749-1.078 2.875-.751-.205-1.026-.889-2.157-.716.01-.72.01-1.439.01-2.159z"/><path d="m121.85 86.629c.234 1.31-.243 1.913-.72 2.515-.944-.169-1.209-.281-2.155-1.076-.914.164-.603 1.553-1.438 1.796-.74-.459-1.823-.573-1.797-1.796-.146-1.934 2.948-1.781 3.235-.36.37-.918 1.61-2.164 2.87-1.079z"/><path d="m92.74 86.629c.715.6.458-.032 1.438 0 .384.336.113 1.325 1.079 1.079-.067 1.249-1.038 1.597-1.797 2.156-1.316-.544-1.758-2.15-.72-3.235z"/><path d="m102.08 86.989c1.418.22 1.202 2.472.72 3.595h-3.955c.009-.848-.619-1.059-.358-2.159 1.483-.368 2.653.014 3.593-1.436z"/><path d="m108.56 87.708c.259 1.097-.367 1.307-.36 2.156-1.761-.19-2.553.798-3.235.719-.515-.444-.68-1.237-.718-2.159 1.79-.394 3.05-1.611 4.32-.716z"/><path d="m124.01 87.349c.534-.012 1.605 1.471 1.438 0 1.471.369.981 1.901.718 3.235-1.542.015-1.182-.444-2.515-1.079-.27-1.1.61-1.057.35-2.156z"/><path d="m112.51 89.504c.916-.392 1.394 1.685 1.438 0 .993.088.82 1.336 1.438 1.796-.679 1.199-2.596 1.375-3.593.36-.3-1.243.39-1.515.71-2.156z"/><path d="m96.334 90.583c.413 1.489-.756 1.401-.719 2.516-1.105-.252-.69-.252-1.796 0-1.291-2.112 1.054-4.112 2.515-2.516z"/><path d="m130.48 92.739c-.829-.111-.399 1.038-1.078 1.079-1.762.082-1.883-1.471-2.157-2.875 1.66-.532 2.81.199 3.24 1.796z"/><path d="m118.617 90.943h2.518c.127 1.442-.004 2.629-1.078 2.875-1.24-.198-1.64-1.24-1.44-2.875z"/><path d="m97.413 91.66c.955.005 2.053-.135 2.517.359v1.799c-1.135-.178-1.269.646-2.517.36-.375-1.021-.375-1.5 0-2.518z"/><path d="m125.09 94.895c-1.876.318-2.799-.316-2.517-2.156 1.56-1.187 2.95-.401 2.52 2.156z"/><path d="m116.46 92.739c.306-.067.338.14.358.36.092.746 1.58.096 1.797.719-.414.424-.407 1.27-.36 2.156-1.569.816-2.562-.673-3.233-1.796-.18-1.137 1.78-.135 1.43-1.439z"/><path d="m56.8 94.178c.625 2.638-2.049 2.939-3.233 1.796-.08-1.872 1.628-2.65 3.233-1.796z"/><path d="m92.382 94.178h2.156c.512 1.103.161 1.614-.36 2.515-1.42-.219-2.381-1.292-1.796-2.515z"/><path d="m48.174 97.053c-.243-2.369 1.962-2.343 2.875-1.799.814 1.931-1.294 2.975-2.875 1.799z"/><path d="m103.16 95.254c.209 1.167-.244 1.673-.358 2.516-2.495-.62-3.334.699-5.032-.36-.297-1.015.506-.93.359-1.796 2.053-.026 3.023-1.079 5.033-.36z"/><path d="m119.7 94.895c1.917-.278 2.05 1.623 1.438 2.875-1.015.298-.93-.506-1.795-.36-.21-1.167.24-1.67.36-2.515z"/><path d="m130.84 95.254v1.799c-1.996 1.693-6.076 1.574-3.953-1.799.87 1.896 2.24-1.667 3.95 0z"/><path d="m108.556 95.254h2.16c.614 1.161.964 2.144 0 3.235-1.39-.415-2.43-1.17-2.16-3.235z"/><path d="m58.237 96.334c1.016.781 3.191 1.916 1.797 3.951-1.455.498-1.136-.778-2.156-.716.016-1.18.608-1.785.359-3.23z"/><path d="m116.46 97.41c.268 1.108-.987.693-.719 1.799-1.854.175-2.986-.369-2.875-2.156 1.43-.354 2.62-.5 3.6.357z"/><path d="m92.022 98.13c.157 1.237-.142 2.015-.36 2.875-1.389-.103-2.112-.094-2.875-1.436.373-1.18 1.377-1.735 3.235-1.434z"/><path d="m93.459 98.13h2.156c.641 1.243.323 2.708-1.078 2.875-.069-.407-.36-.199-.36 0-.531-.66-.687-1.703-.718-2.87z"/><path d="m44.221 98.489c.955.003 2.052-.134 2.516.36.209 1.167-.244 1.673-.36 2.516-.614.076-.93-.611-1.078 0-.923-.64-1.588-1.759-1.078-2.871z"/><path d="m52.128 98.489c.99.468.718 1.942.358 2.875-1.547.111-2.9.026-2.875-1.437.336-.98 1.794-.84 2.517-1.434z"/><path d="m57.519 99.569c.148.866-.656.781-.359 1.796-.819.494-1.352-.927-1.438 0-.515-.442-.68-1.237-.718-2.156.769-.77 2.008-.179 2.515.365z"/><path d="m101.37 98.849c1.903-.105 2.837.758 2.516 2.875h-2.157c-.34-1.41-.79-1.33-.36-2.871z"/><path d="m106.04 98.849c.563.155.307 1.129 1.438.72.814 2.84-3.333 2.84-2.517 0 .72.119 1.12-.073 1.08-.72z"/><path d="m129.04 102.8c-.835-.363-1.158-1.237-1.078-2.519.998-.438 2.352-.523 2.875-1.436 2.58 1.114-.06 3.876-1.8 3.956z"/><path d="m117.9 99.569c1.675.167 1.59.009 2.875.716-.432.77-.439 1.96-1.438 2.159-1.52-.12-1.88-1.8-1.44-2.871z"/><path d="m124.37 99.569c.895-.056 1.113.564 1.797.716v2.159c-1.87.313-2.55-.564-2.515-2.159.6.14.67-.27.71-.711z"/><path d="m99.21 100.64c-.173 2.308-1.343 2.77-2.875 2.159-.445-2.03 1.366-3.217 2.875-2.16z"/><path d="m111.07 101.72c.209 1.407-.309 2.088-.718 2.875-2.81.89-2.48-4.634.72-2.88z"/><path d="m39.909 102.44c.259 1.097-.369 1.31-.36 2.156-.955-.003-2.053.134-2.515-.36-.751-2.5 1.791-3.21 2.875-1.8z"/><path d="m112.87 102.08c1.074.044 1.065.427 2.516.72.497 1.454-.78 1.135-.718 2.155h-2.517c-.59-1.68.21-1.59.72-2.88z"/><path d="m91.662 102.8c.158 1.234-.142 2.012-.359 2.875-1.368-.123-2.071-.135-2.156-2.159.939-.14 1.003-1.15 2.515-.72z"/><path d="m118.62 102.8c3.788.079 2.144 4.554-.36 2.875-.56-1.14.2-1.58.36-2.88z"/><path d="m129.76 105.68c-.479.36-1.085.591-1.438 1.076-3.31-1.72 1.71-5.89 1.44-1.08z"/><path d="m93.459 103.52c.955.006 2.052-.134 2.516.36.048.886.054 1.731-.36 2.159-1.371-.12-2.381-.12-2.156-2.52z"/><path d="m98.85 105.68c.295-5.154 5.911.585.72.717-.16-.32-.316-.64-.72-.72z"/><path d="m103.88 103.52c1.77-.21 2.767.348 2.515 2.159-.611-.135-.677.281-.718.717-1.17-.79-2.63-.96-1.8-2.88z"/><path d="m122.21 103.52c1.312-.231 1.914.243 2.515.72-.402 1.167-1.262 2.091-2.515 1.439.01-.72.01-1.44.01-2.16z"/><path d="m96.334 106.04c1.312-.234 1.915.24 2.516.716-.297 1.261-.817 2.296-2.516 2.159-.413-1.02-.413-1.88 0-2.88z"/><path d="m108.56 106.04c.413 1.006.413 1.866 0 2.875h-1.797c-.72-1.41-.35-3.31 1.8-2.88z"/><path d="m89.865 106.76h1.797c-.259 1.1.367 1.311.36 2.159-1.597.199-.798 2.796-2.157 3.235-2.934-1.71 1.391-2.78 0-5.4z"/><path d="m103.164 109.63h-1.8c-1.558-3.55 4.21-3.17 1.8 0z"/><path d="m111.07 107.12h2.157c.375 1.018.375 1.498 0 2.516-2.13.4-2.99-1-2.16-2.52z"/><path d="m122.57 107.12c.621.219-.026 1.705.719 1.799-1.52.518-.823 3.25-1.438 4.671-1.132.404-.813.032-2.157 0-.21-2.85.34-5.66 2.88-6.47z"/><path d="m119.34 108.19c.035 1.115-.44 1.717-.72 2.516-1.392-.167-2.185-.93-2.156-2.516 1.27-.59 1.74-.91 2.88 0z"/><path d="m127.96 107.83c.898 1.094.306 1.445.36 3.235-.639-.673-.914.292-2.157 0-1.22-1.26-.67-3.68 1.8-3.23z"/><path d="m48.894 108.55c1.116.322 1.553 1.319 1.795 2.516-2.655 1.52-3.679-.9-1.795-2.52z"/><path d="m95.257 109.27c.297 1.018-.507.933-.36 1.799-.892.465-1.745-.802-1.797 0-.515-.445-.68-1.237-.718-2.156 1.399-.28 1.863-.37 2.875.36z"/><path d="m97.772 109.27h2.515c.645 1.223.272 2.357-.718 2.878-1.107.266-.439-1.24-1.797-.72-.003-.72-.003-1.44-.003-2.16z"/><path d="m104.6 109.27c1.021-.059.702 1.217 2.157.719.179 1.615-.372 2.504-2.157 2.159-.49-1.09.17-1.29 0-2.88z"/><path d="m109.63 110.71c2.504.965 2.27 1.88.36 3.595-1.186-.015-1.375-1.024-1.438-2.156.28-.56 1.15-.53 1.08-1.43z"/><path d="m115.02 111.43c2.113.246 2.609 2.393 1.078 3.595-2.05-.47-2.51-2.26-1.08-3.59z"/><path d="m32.361 111.79c1.351.205 2.486.629 2.515 2.156-.905 1.249-2.518.532-3.235-.36.155-.69.776-.91.72-1.8z"/><path d="m126.88 112.5c.171 1.132-.512 1.407-.72 2.158h-1.797c-.206-.751-.891-1.026-.718-2.158 1.03-.55 2.47-1.08 3.24 0z"/><path d="m93.459 112.15c1.565.126 1.653.053 2.516.357.048.886.054 1.731-.36 2.158-1.969.25-2.923-1.07-2.156-2.52z"/><path d="m103.16 112.5c-.121.722.075 1.126.72 1.079-.649 2.893-3.812 1.056-4.312 3.955-1.739.099-2.109-1.565-1.438-2.875 3.05.66 2.35-2.44 5.03-2.16z"/><path d="m50.689 113.58c.54.541 1.083 1.076 1.797 1.439.018 1.214-.836 1.559-1.438 2.156-.713-.006-.456-.98-1.438-.72-.776-1.85.472-1.64 1.079-2.88z"/><path d="m108.2 114.66c.047.886.054 1.732-.359 2.156h-1.438c-.287-.673-.6-1.316-.718-2.156 1.05-.58 1.78-.18 2.52 0z"/><path d="m113.94 114.66c2.116 1.863-.762 5.546-2.516 3.952-.46-2.81 2.12-3.01 2.52-3.95z"/><path d="m117.54 114.66h2.516c.269 1.585-.276 2.357-1.078 2.875-1.46-.18-2.05-1.63-1.44-2.88z"/><path d="m44.581 115.02c.98-.263.723.714 1.438.717.276 1.354-.438 1.72-.36 2.875-.899.477-1.126-1.418-1.438-.36-.731-.345-.776-1.377-.719-2.515.721.12 1.124-.07 1.079-.72z"/><path d="m54.644 115.38h1.438c1.079 1.158.235 2.015-.36 3.235-.32-.219-.642-.433-.718 0-1.177-.62-.486-2.03-.36-3.24z"/><path d="m104.96 117.54v1.796c-.463.494-1.56.356-2.515.359.297-1.015-.506-.93-.36-1.796.53-.56 1.84-.32 2.88-.36z"/><path d="m117.9 117.9v1.796c-.708.714-2.053.229-2.875 0v-1.796c1.44-.26 1.45-.26 2.88 0z"/><path d="m111.79 120.05c2.024-.231 2.956 1.322 2.156 2.875-2.03.24-2.96-1.32-2.16-2.87z"/><path d="m43.862 133.35c1.16-.038 2.644.362 2.157 2.875-1.512-.433-1.576.582-2.517.72-.767-1.36.02-2.36.36-3.59z"/><path d="m49.612 135.51h1.438c.505 1.311 1.055 2.463 0 3.595-1.183-.72-2.091.111-2.155-2.878.61.14.676-.27.717-.71z"/><path d="m53.566 138.02c.885-.047 1.731-.056 2.155.359.209 1.407-.309 2.086-.718 2.876-.32-.223-.644-.437-.72 0-1.299-.54-1.021-1.86-.717-3.24z"/><path d="m46.377 149.16c.55 1.144.127 1.582 0 2.875-1.442.328-1.743.252-2.515-.719.071-1.48.677-2.44 2.515-2.16z"/><path d="m36.674 153.48c.748.21 1.161.755 1.797 1.076-.202 1.117-.43 2.208-1.797 2.158-.385-.812-.816-1.582-1.438-2.158-.115-.96 2.014.33 1.438-1.08z"/><path d="m187.62 46.734c2.101-3.782 3.303-7.324 7.547-9.345 1.245-.591 3-1.126 3.594-1.077 3.519.287 6.066 3.896 10.422 2.516 4.51 2.199 6.791 6.627 6.829 13.299 2.63.082 4.18-2.126 6.47-.36 2.183-1.887 6.555.038 9.345.716.17 2.229 1.557 3.235 2.156 5.034 5.227-1.679 10.094-5.317 17.61-4.314 1.193 1.811 3.598 2.316 4.674 4.314.778 1.448.185 3.293 1.436 4.671 1.425-.255 2.542-.811 3.595-1.437 2.422.389 2.188.635 3.955 0 6.186 2.167 13.319 4.633 12.22 12.22-1.018 6.99-8.704 8.505-12.939 11.5v2.156c6.276-1.009 16.7.6 19.046 5.75 1.618 3.548-2.685 5.227-3.951 8.266.237 1.319 1.243 1.872 2.156 2.518 2.982 3.527 4.819 8.389 4.311 15.812-.105 1.603-.447 3.185-.717 4.674 2.39 1.243 5.134-1.158 7.187-.72 1.146.246 2.683 1.533 2.878 2.875.457 3.164-3.223 4.7-3.954 7.905-2.992.123-3.218 3.016-6.11 3.235-.014 1.334.553 2.085 1.08 2.875 1.041 5.15-.123 9.216-2.159 12.939-.339.623-.471 1.422-.72 1.796-.462.708-1.673 1.094-2.155 1.799-.699 1.023-1.117 3.124-2.155 4.312-1.123 1.283-2.907 1.977-3.955 3.234.349 7.528-1.477 14.036-4.67 18.689-.349.507-1.369 1.697-2.156 2.516-1.69 1.764-2.398 1.585-4.674 2.875-1.72.975-1.696 1.504-4.312 2.156-3.495.874-6.145.067-10.064 2.518v3.592c-1.696 2.677-2.085 5.25-4.671 6.83-.122.073-.573-.538-.719-.36-.053.064.064.702 0 .72-1.287.331-2.768.035-3.955 1.439-1.708 2.021-3.469 4.852-5.391 7.905-2.167.468-3.261 2.013-4.671 3.235-3.469.859-5.756 2.056-8.984 1.436-2.159-.412-2.363-.789-3.955-1.436-2.287-.934-4.34-1.667-5.75-2.875-2.521.713-4.545 1.924-6.112 3.595-1.27.403-2.992.359-3.235 1.795-3.601-.204-6.306 2.156-9.702.72-.974-.412-1.734-1.114-2.515-1.799-2.15 1.325-5.11 1.84-6.83 3.595-2.544.588-3.404-1.24-4.674 0-1.389.313-1.275-.877-2.152-1.076-2.741 1.884-4.142 5.203-7.189 6.467-.38.158-1.437-.167-2.158 0-1.094.258-4.06 1.746-5.751 1.799-2.854.088-5.274-2.439-8.265-3.235-.902-.774-1.133-2.223-2.156-2.875-1.717-.012-3.024 1.696-4.312 2.156-.72.257-1.574-.597-1.797.359h-6.47c-2.837-1.611-9.925-4.183-10.782-10.064-.524-.673-1.183-1.211-1.796-1.796-2.415-8.912-2.564-21.623 1.796-28.395-.085-1.95-1.747-2.325-1.796-4.311-4.681 4.425-7.495 12.226-14.737 12.939-1.055.859-2.428 1.403-3.593 2.155-3.754-.07-6.688-3.001-8.985-6.829-.169-.281.103-.749-.359-.72-.429-2.937.617-5.127 1.438-7.546 1.547-4.569 2.973-7.88 5.75-11.501 1.275-1.661 3.405-4.06 2.157-7.549-3.642.6-8.27.968-11.142 0-1.305-1.211-2.963-2.067-4.672-2.875-2.338-4.353-4.579-8.547-3.593-15.095.588-3.911 3.416-6.836 3.593-10.781.117-2.583-1.006-5.086-1.438-7.549-2.796-1.875-4.744-4.598-6.468-7.546-.143-4.109.54-8.23.358-12.22-.109-2.436-.936-5.247 0-7.189 1.286-2.662 2.299-5.666 2.875-8.266 2.562-2.112 3.51-5.835 7.547-6.47 3.21-2.039 3.599-5.025 7.907-6.11.42-.658 1.377-.778 1.797-1.437 7.711.07 14.345-.883 19.408 3.595 1.404-4.574-1.685-9.386-2.515-13.659-1.214-6.245.219-12.027 2.515-15.455 1.411-2.106 4.177-3.65 5.75-6.11 1.987-.05 2.358-1.714 4.672-1.436 1.357-3.788 4.014-7.9 8.625-8.625 1.897-.298 3.974-.141 5.392-.36 1.028-.161 1.411-.441 2.156-.719.175-.064.529-.003.719 0 3.897.082 8.056 1.93 11.86 2.155 2.645 1.43 4.65 3.495 7.546 4.674.72 2.755 3.902 3.045 5.031 5.391 2.129.056 4.293 1.764 5.394.72 1.54 1.295 3.27 1.482 7.18 1.075zm-28.03 26.596c1.059-1.819 2.963-.421 3.951.719 1.076-1.559 2.501-2.77 3.235-4.671-1.319-.547-.696-2.945.362-3.235.471.366 1.322.351 1.796.72.018-1.179 1.021-1.375.72-2.875-1.305-.015-2.837.199-3.235-.719.585-2.445-.23-2.691-.362-5.031 1.258-.062 2.305.094 2.878.717.72 1.921-1.538.86-1.079 2.515 1.526.175 3.724-1.354 3.595-3.952-1.539-.307-1.831.231-2.516-1.079-.415-1.708.968-2.805 2.155-1.796.688-2.606-2.062-1.77-2.155-3.595.047-.669.234-1.202.72-1.439.564.275.535 1.141 1.436 1.08.837-2.472-.459-5.715-1.436-7.546.044 1.363-1.626 1.006-1.799 2.156.035.924 1.404.515 1.436 1.436-.485.717-1.421 2.068-2.152 1.439.638 1.24.322 2.706-1.082 2.875-.17 1.132 1.105.813.72 2.156-.357 1.383-1.451.67-2.156 1.079.299-1.018-.506-.93-.359-1.799.044-1.032 1.532-.623 1.439-1.795-1.013.052-1.036-.88-1.08-1.796-1.056.637-1.217.488-2.155.716-.088-1.202-.772-2.264.359-2.875h2.156c-.275.918-.529 1.652.359 2.159.067-.533.869-.331 1.437-.36-.72-2.003-.79-2.829.72-3.955-1.077-.003-1.51-.646-1.796-1.436.418-.062.392-.57.356-1.079 1.357-.41 1.638.345 2.158-.72-2.357-1.196-3.264-2.404-5.391-3.235-.295 1.027-.579 2.059-2.155 1.799.023 1.223.111 2.507-.72 2.875-1.202-.026-2.485-.962-1.796-2.875h2.153c-1.205-1.67-.308-1.512 0-2.875-.451-.187-2.042-.632-3.592-.72.059 1.135.012 2.17-.72 2.516-2.008.111-1.04-2.2-1.438-2.875-1.23-.152-1.079 1.076-1.797 1.436-1.166-.389-1.355-1.758-2.156-2.516-.415 1.144-.538 2.577-1.797 2.875-.709-.249-.958-.956-1.078-1.795-.955.003-2.053-.138-2.517.359 1.021.977.938 3.346-.718 3.595-.644-1.635-2.407-2.147-3.595-3.235-1.026.971-4.057 3.089-2.515 4.311.644-1.454 1.711-2.518 2.875-2.515.21 2.606-1.221 3.571-2.157 5.031-.111 1.088.399 2.796-.718 2.875-1.122.041-1.18-.623-2.157-1.436-8.804-.114-16.588 11.515-11.141 20.126v2.875c.981.673 2.074-.404 3.235.72.097 2.343-2.647 2.752 0 3.954.573-.266-.082-1.761 1.078-1.439 1.722.076.797 2.796 2.156 3.235 2.014.126 3.419-.86 4.314.72.249 7.687 9.674 3.931 14.016 4.311-.278-1.834.145-2.969 2.157-2.515v2.875c2.476-.629 2.714.038 5.393-1.436.029-1.208-1.73-2.878 0-3.595 1.226.21 1.699 1.176 1.436 2.875 1.255-.886 2.325-.237 2.875-2.156-.462-1.05-1.84-1.176-2.155-1.439.43-.076.21-.398-.01-.72zm23 10.424c.167-.164.644.462.72.36.968-1.331.73-3.729 3.234-3.954 3.762-6.973 10.094-9.477 16.534-14.016.064 1.723.623-.617 1.796 0 2.398-2.393 3.832-5.753 6.826-7.549.819-3.109 1.919-7.417 1.439-10.781-.208-1.459-1.164-4.519-2.158-5.39-1.316-1.158-3.451-.857-5.388-1.08-2.904-.333-4.955-2.003-7.909-2.515-.982.936-2.158 1.673-3.954 1.796-.714 2.454-2.764 3.788-3.235 6.83-.906 5.896 1.732 12.904 3.235 17.25 1.893.456 2.132-.743 3.598-.717.55-1.407-.24-3.039-.72-4.674-.479-1.626-.933-3.644-1.799-3.954.038-1.068.819-1.454.36-2.156-1.24.076.604-4.928-.36-5.391 1.469-1.161 2.255-3.501 3.954-4.671 1.849-1.275 4.058-.766 6.83 0 1.471 2.521 4.104 4.183 4.671 7.546.229 1.354-.389 2.711 0 4.314-1.808 2.624-3.115 5.747-5.75 7.546-2.683.717-4.671 3.899-7.549 3.235-.366 2.407-1.978 1.36-3.592 2.516-1.419 3.135-5.225 3.881-6.47 7.189-.626-.029-1.118.079-1.439.36-1.731 3.899-5.531 5.727-7.546 9.345-.849-.88-.67.536-1.796.357.149 1.887 1.553 2.519 3.234 2.875 1.94-.86 2.16-3.606 3.24-4.671zm-45.64-39.895c.145-.603 1.195-3.22 0-2.875.41 1.167-1.1 2.211 0 2.875zm65.05 17.254c.667-.322 2.275-.822 2.158-.719.36-.316.594-1.811 1.439-2.875.462-.585 1.538-.982 1.796-1.439 2.611-4.615-.375-7.376-2.516-10.781-2.161.482-2.278-1.076-4.314-.72-4.787 3.521-3.094 12.697-.716 17.611.48-.296 1.17-.606 2.15-1.077zm-28.04-7.909c-.356.933-.631 2.407.36 2.875.778-.751 1.764-1.492 3.234-2.155.524-.237 1.589-.073 2.156-.36 2.176-1.1 4.118-3.715 7.189-2.516-.021-.672.274-.76.719-.359-.081-.679.404-.793.357-1.437-4.86-.245-9.97 1.065-14.02 3.952zm41.7 2.156c1.708 1.427 3.901.585 5.75.719 3.539.26 6.102 1.387 8.628 3.235.182-1.053.679-.205 1.077-1.436.081.278.012.708.359.717-.389-2.82-4.174-.298-3.235-4.671-3.38.149-9.7-.883-12.58 1.436zm-33.07 1.439c1.108-.328 1.196-1.682 1.436-2.875-1.5-.112-1.85 2.199-1.44 2.875zm2.16 6.11c-.114 1.305-1.255 3.521.363 3.955 1.802-.182 4.381-3.013 4.671-5.75.271-2.571-1.29-5.072-1.799-7.189-2 2.333-2.87 4.866-3.23 8.984zm51.04-2.156c1.08-1.211-1.33-1.091 0 0zm11.13-1.439c.38.094 3.346 1.609 3.598 1.799 4.536 3.417 1.827 11.34-1.08 15.812-1.547 2.377-3.419 4.963-5.033 6.829-1.837 2.129-4.027 4.323-4.671 7.189 1.529.21 2.378-.26 3.595-.36 3.369-5.499 11.512-14.493 12.22-24.08.229-3.068.064-6.815-1.796-8.985-2.603-3.039-4.814-.731-8.269-2.158.079 1.436-1.482.462-2.155.719-.617.237-1.573 1.027-2.516 1.439-1.518.661-2.673 1.158-3.234 1.796-.404.459-2.203-.597-1.439.72 2.61.602 7.02-1.647 10.77-.72zm-39.89 8.625c2.58 1.146 6.959-.594 8.985 0 1.483-1.632 2.033-4.197 5.034-4.311.979-1.893 4.507-1.243 5.388-3.235-2.15-1.106-5.254-2.334-7.187-1.08.056-1.6-1.46-.213-1.799 0-.267-2.094-1.574-.015-2.872-1.076-2.18 3.578-5.53 5.968-7.55 9.702zm-26.95 1.439c3.583-.638 1.787-8.476 2.516-10.784h-2.155c-.79 2.744-1.95 7.939-.36 10.784zm-7.91-3.234c-.146 2.703-.146 5.221-.72 7.546-.479 1.942-2.653 4.051-.72 5.75 2.775.035 4.007-5.814 6.11-8.625-1.114-2.937-.431-6.314-.36-9.702-.079-.281-.298-.418-.719-.36-.96 2.03-2.13 3.858-3.59 5.391zm69-3.595c1.275.316.887.044 2.159.36v-1.439c-.8.28-1.95.207-2.16 1.079zm3.6 0c.018-.617-.277-.921-.719-1.079-.51.526-.53 1.392.72 1.079zm-7.19.72c-.082-.281-.012-.711-.36-.72-1.229 1.091-3.325.292-5.033 2.156-3.376.576-5.355 2.55-6.827 5.034 1.346 1.605 2.989 1.003 4.674 2.515 4.42-2.185 13.803-3.782 19.767-1.079.254-1.989 2.111-5.089.356-6.83-.085.635-.617.822-1.436.72-7.602-1.644-12.86 3.047-20.126 5.75-.281-.798-.755-1.401-.72-2.515 1.328-.348 2.065-1.29 3.954-1.077 2.8-2.896 7.842-2.974 8.985-5.033-.85-.472-2.33.043-3.22 1.079zm34.15 14.735c1.854-2.29 4.662-3.718 3.234-8.625-2.252-2.401-5.47-5.282-8.985-5.75-3.029-.404-6.545-.5-8.269 2.515 2.221 1.375 6.464-1.12 9.705 0 1.302.448 2.229 1.772 3.235 2.875.354 1.442.441 3.153.359 5.031-1.837 2-3.404 4.265-7.549 3.955-.196 1.635.184 2.691 1.079 3.235 3.01-.455 4.19-2.742 7.18-3.236zm-52.12-10.065c.345.731 1.381.778 2.516.72.865-1.77 2.831-2.439 3.595-4.314-.896.041-1.114.676-1.799 0-.77 1.769-3.98 1.749-4.31 3.594zm48.88 2.516c-3.03-1.927-5.376-2.995-7.908-.356-1.904.061-1.118-.486-2.876-.72-3.34 3.349 3.446 3.314 3.955 6.11 3.9-.293 6.89-.281 6.83-5.034zm-40.97 2.875c-3.057-.951-5.49-1.19-7.187-2.875-2.983-.55-3.592-.093-5.031 0-.664.044-1.69-.45-2.158-.356-.526.102-.892.649-1.439.716-3.17.404-6.142.483-7.546-1.796-.45.123-1.474.301-2.515.72 1.708 6.063 9.681 3.861 13.658 2.875.79 1.027 3.732 1.223 6.467 2.156.085.029-.081.676 0 .719 1.161.6 3.312.357 3.955.72 2.477 1.389 2.313 4.551.717 7.187-2.75 1.009-5.9 2.556-8.266 2.875-1.884-1.389-2.598-.392-4.312-1.436.187.74-.854.699-1.079.716-1.875.158-4.027-.559-6.467.72-.363-.495-.597.155-1.082-.72-2.545 1.632-4.678 1.436-6.468 2.519-.553.333-3.226 1.755-3.954 2.515-1.802 1.887-4.197 6.789-2.875 10.062 1.17-1.875 1.649-6.192 3.595-6.11.471-2.583 2.957-4.256 5.03-5.031.331-.123.582.412 1.08.36.815-.088 1.959-1.003 2.515-1.08 3.335-.447 6.728.799 9.345-1.076 3.191 1.924 7.078.913 11.142 0 .538-.541.643-1.515 1.438-1.799 3.636-1.515 7.055-3.247 6.826-8.625-1.53-1.59-4.15-2.084-5.39-3.959zm-50.32 1.079c.059 3.39-4.13 6.043-1.796 9.345.456-.982 1.287-1.588 1.796-2.515 3.854-2.375 5.596-6.865 9.705-8.985-.018-1.07 1.056-1.825.356-2.515-3.92-1.431-6.92 4.322-10.06 4.67zm56.07.36c1.843 1.27 3.095-1.065 5.03-1.08 1.887-.014 6.827 1.869 8.985 2.519.4-.916.988-1.649 1.076-2.878-2.41-1.17-4.647-.708-6.47-1.796-1.98 2.299-8.14-.313-8.62 3.235zm-35.58 1.796c.021-.217.053-.424.36-.357.021.216.056.424.359.357-.059-1.854 2.527-2.58 1.076-4.671-2.79-.135-3.66 3.068-1.8 4.671zm56.78 1.799c.974 1.185 1.913 2.398 3.234 3.235 2.75 5.309.764 13.05-3.234 16.531-.91.792-.887.105-1.437.359-.021.009-.62.989-.719 1.08-1.071.959-1.916.907-2.876 1.076-.616 1.907-2.934 4.01-2.518 5.75 1.685-.234 2.474-1.36 3.234-2.516 1.019.445 2.22.445 3.235 0 7.443-4.741 13.272-23.106 3.598-29.471-.094.559-.79.249-1.082 0-.45 1.347-1.14 2.455-1.43 3.965zm-62.53-1.439c-.152 4.466.959 7.666 2.516 10.424.067-.532.868-.331 1.438-.36-.591-4.083-.035-9.312-2.515-11.5.16 1.126-.91 1.011-1.44 1.436zm10.42-1.437c-.444 1.612-7.075 9.532-2.878 10.062.029.006 1.161-1.17 1.799-1.076-.126-3.723 2.939-6.163 2.516-8.985-.33.397-.81.248-1.44-.001zm7.91 6.827c.846.474 1.635 1.003 3.234.72.434-2.802 1.56-4.911 2.156-7.546-4.26-.188-4.66 3.483-5.39 6.826zm26.59-5.39c.532 2.825 1.299 5.408 2.516 7.549 2.919-1.158 4.34-3.808 5.75-6.47-2.9-.003-4.67-2.495-8.27-1.079zm-32.34 6.11c.682.638 2.372.263 3.595.36-.516-2.601.626-3.984.719-6.83-2.6 1.012-3.96 3.244-4.32 6.47zm14.73-6.11c-2.051.518-2.398 2.767-2.516 6.11 4.227.699 7.657-.205 8.266-4.312-1.62.661-3.68-2.322-5.75-1.798zm-88.77 29.115c-.414-.427-.407-1.272-.36-2.159.867.149.782-.655 1.797-.36.74.1.339 1.34 1.079 1.439.92-4.01-.429-7.596-.72-11.141-.525-6.396-5.219-7.209-7.907-10.424-.327.628-.123 1.792-.718 2.155-.918.19-1.258.477-1.797-.357-.435-1.512.581-1.576.718-2.518-.508-2.366-4.469-1.281-4.671-3.952-1.979.217-2.591-.421-3.594-.719-1.35-.401-3.035-.188-4.313 0-1.652.24-1.575.389-2.875 0-.591-.176-1.553-.041-2.157.36.325 1.135 1.084 1.576.36 2.875-2.135.971-2.346-.948-3.595-1.799-1.258 2.217-3.807 3.144-5.391 5.034-3.78.916-7.031 4.197-7.547 7.187 1.207-.583 2.439-3.343 3.953-1.437.075 1.033-.091 1.825-.718 2.156-1.098.26-1.31-.369-2.157-.36-.538 2.097.996 2.121 1.08 3.595-.476.003-.329.629-.72.72-1.427.228-1.939-.457-2.515-1.08-1.568 2.554.108 5.166.36 7.189.596 4.829-2.248 10.354 1.438 12.58.326-.751 1.06-1.097 2.155-1.079.086.512.592.605.72 1.079-.123.954-.898 1.258-1.079 2.156.75.567 1.464 1.17 2.517 1.436.18-1.614 1.544-2.047 2.875-2.515-.108.708.486.713.718 1.079.092 1.41-1.3 1.333-1.078 2.875 1.498.424 2.513-.421 3.953-.36.564.635.101 2.296 1.079 2.516 1.922.325 3.095-2.978 4.673-.72.093 1.053-.813 1.106-.72 2.159.581.617 1.503.892 2.875.717.398-.679.459-1.697.72-2.516-.803-.155-1.283-.635-1.438-1.436.662-1.568 2.647-2.296 3.233-.36-.455.623-1.214.942-1.078 2.156.955.125 1.214.945 1.438 1.799 6.083 1.424 7.945-3.34 11.501-5.034-.006-1.062-1.79-.322-1.796-2.156.664-.775 1.05-1.825 2.875-1.439.453 1.893-.745 2.132-.72 3.595 6.626.503 7.312-9.93 9.705-13.656-.3.62-1.09.79-2.12.72zm103.15-22.286c1.592 1.647 1.796 4.677 3.595 6.11 2.021-3.68-1.319-7.625-2.516-10.424.51 2.299-1.03 2.565-1.07 4.314zm-75.84-3.235c-.322.626-.802 1.384-1.437.72-.239 2.767 1.045 3.785.36 6.11 1.018.375 1.497.375 2.516 0 .53-2.086 1.03-6.607-1.44-6.83zm95.6.36c-.059.418-.567.389-1.076.36-.978 3.217-3.533 4.852-4.674 7.906-.796.035-2.765 1.939-1.077 2.156 2.247-2.311 6.254-5.841 8.626-8.625-.24-.958-1.08-1.318-1.8-1.797zm-117.88 16.174c3.682-3.147 4.247-9.412 6.828-13.659-.08-.278-.01-.708-.358-.72-2.8 4.11-7.22 7.842-6.47 14.379zm12.58-10.424c-.095 2.852.234 5.276 1.797 6.47 1.271-1.591 5.285-2.939 4.312-7.906-2.74-1.123-4.21-.538-6.11 1.436zm38.1-2.155c-1.387.29-1.787 1.568-2.516 2.515 1.527 2.907 3.475 5.391 6.11 7.189.974-1.088-.231-1.521-.72-2.518-1.07-2.194-2.501-6.391-3.235-6.827.22-.02.43-.055.37-.359zm45.64.719c-.345 1.091-2.146.726-1.796 2.516 2.203.79 2.013 3.975 3.952 5.031 1.66-2.183-.62-6.198-2.15-7.547zm-89.13 4.311c1.22 2.255.81 6.139 2.875 7.549.94-.5 1.97-.907 2.157-2.158-1.358-2.475-2.148-5.52-2.517-8.985-.079-.281-.3-.418-.718-.36-.74 1.184-1.12 2.714-1.8 3.954zm31.26 16.536c.501-.246.937-1.226 1.797-1.799 1.626-1.077 3.17-1.41 3.954-2.516 3.132-4.414-.27-9.634-2.516-10.781-.438-.225-.356-.892-.72-1.079-.494-.255-1.696-.076-2.155-.36-.746-.459-.956-1.495-1.799-1.796-3.791-.845-6.774-.12-8.985 0-.661.375-1.456 1.448-2.152 1.796-1.661.828-3.545.427-5.034 1.079-1.671.731-5.167 4.06-6.829 6.11-2.28 2.811-6.473 8.956-6.468 12.577.001 1.132.056 2.237 1.078 2.878 1.653.453 1.637-1.641 2.157-2.518.674-1.135 1.502-2.393 2.156-3.592 3.081-5.666 6.522-10.471 11.501-13.659 4.054-2.597 7.979-2.036 12.939-1.079 1.278 2.077 3.926 2.781 4.312 5.753-2.428 4.499-7.566 7.871-12.22 8.985-1.141 2.462-5.631 1.36-5.75 3.951.848.468 2.035.6 2.875 1.08 2.04-4.34 7.96-3.14 11.84-5.03zm52.48-17.255c-.425 1.878.559 4.773 2.158 5.75.836-.377 3.375-.913 2.516-1.796-1.1-.354-1.35-4.644-4.68-3.954zm46 .36c-.506-.284-3.056-.685-2.155.36.14-1.109 1.84.947 2.16-.36zm8.63 5.033c.383-1.583-1.854-3.574-3.235-4.314-1.497-.805-4.136-1.509-5.03-.36 1.158.921 3.422.954 3.954 2.875 1.466 5.309-5.917 7.584-4.674 11.141 2.47-1.23 8.1-5.712 8.98-9.342zm-15.09-4.674c2.32 1.059-1.06-.477 0 0zm-82.31 6.83c2.048.328 3.2.997 4.674 1.076-.726-2.39-2.62-3.606-4.317-5.031-.269-1.287-.83-2.284-2.152-2.515-.65 2.199 1.98 3.606 1.8 6.47zm34.5-5.391c-.208 3.323 2.605 3.624 2.878 6.467 1.585-.447 2.77-1.299 4.671-1.436.01-4.949-2.42-5.695-7.55-5.031zm-8.62 7.546c2.759 2.276 4.394 5.671 7.549 7.549-.093 1.05.813 1.103.72 2.155 1.117.196 1.545 1.088 2.516 1.437 3.281 5.583 7.575 10.155 6.826 19.769-1.287 1.705-2.454 3.533-4.671 4.311-1.688.752-2.623-.397-4.313.72-.454-1.144-3.262-2.811-3.955-1.436 1.533-.097 1.434 1.441 2.519 1.796 3.457-.249 5.54 1.509 9.702 1.436 6.048-5.636 3.934-20.585-.717-27.312-.573-.828-1.778-1.618-2.519-2.518-.819-.998-1.485-2.562-2.152-3.232-1.612-1.611-4.048-2.047-5.394-3.594h-2.516c-1.252-1.67-2.649-1.34-3.954-2.516-.05.609.06 1.1.34 1.419zm.72 31.271c-1.129-2.039-2.574-1.529-4.314-2.875-.365.471-.351 1.325-.719 1.796 1.862.717 4.831 1.623 5.033 2.875 1.366-1.229 2.617 2.237 3.951 1.079-.48-1.65-2.54-3.33-3.95-2.88zm-2.88-38.46c-.755-.907-1.401.91-2.158 0 .339 2.708 1.585 6.259 3.954 5.753-.76-1.743-2.19-2.84-1.79-5.753zm2.16.72c.831 4.203 5.25 4.814 8.626 6.47.084-2.6-1.562-3.469-1.796-5.75-.761-.795-2.58-.538-2.876-1.796-1.87 1.049-2.41-.118-3.95 1.076zm57.14.719c-2.126-.091-3.36.713-3.595 2.515 2.001 1.978 4.691 2.276 7.189 4.314 1.519-1.84 4.621-4.001 3.592-7.189-2.15-.354-5.66-.956-7.19.36zm-66.49.36c.205 1.521.053 3.451.72 4.671 1.211 2.223 5.388 4.019 7.189 2.875-.302-.913-1.724-.892-2.516-1.796-.988-1.123-1.41-4.384-2.159-2.515-.061-2.214-.801-3.75-2.515-4.314.02.625-.27.926-.72 1.084zm-35.22 0c-1.422 2.621-3.282 7.923-1.439 11.5.743-.936 1.931-1.425 3.235-1.796-1.036-3.32-.509-5.759 0-9.705-.6.004-1.2.004-1.8.004zm64.69 3.235c-.562.754-1.258 1.375-2.155 1.796-2.054.026-4.034.828-5.391 2.515-.211 1.287 1.064 1.094 2.158 1.079.86-1.339 2.413-.944 3.592-2.515.685.673.649-.213 1.796 0 2.688-3.179 7.599-2.799 12.22-3.955 1.117 1.752 1.734 4.282 1.079 6.83-1.342 1.053-2.438 2.352-3.234 3.955h-1.437c-1.723 3.068-6.8 2.781-8.628 5.75 1.509 1.702 2.551-.459 3.954-1.079.296-.129.515.462.72.36.24-.12-.029-.582.359-.72 2.501-.892 4.905-2.39 7.55-4.311 3.013-2.197 5.434-4.724 5.03-9.705-4.41-7.053-11.4-.024-17.62-.001zm-58.94-2.156c-1.808.488-2.604 4.884-1.076 6.827 4.28.16 5.78-8.1 1.08-6.822zm24.8 6.102c2.149.802 3.812.182 5.75 1.439-.149-1.228-1.199-1.857-1.799-2.875-.605-1.035-.702-2.509-1.796-3.235-.81 1.461-2.31 2.242-2.15 4.67zm-38.09-2.87c-.076 2.951-.006 5.759.356 8.269 1.491-.1 1.404.471 2.516 0 1.07-3.197-.457-6.961.719-9.705-1.64.049-1.77 1.599-3.6 1.435zm76.19 2.159c-.097 2.132.393 3.679.72 5.39 4.01-.181 6.175-2.211 6.47-6.11-1.64-1.683-5.09.959-7.19.719zm-97.76 2.151c.339 6.09-3.555 7.947-4.314 12.939.999 1.755 1.552 3.96 3.595 4.671 2.503-1.091 4.592-2.598 6.11-4.671-2.55-5.639 2.05-11.038 2.157-15.095-2.71-1.052-5.33-.698-7.56 2.155zm127.59-1.792c2.354 1.6 3.623 4.285 5.033 6.827.243-.713 1.094-.822 1.437-1.436-.84-2.72-3.64-7.029-6.47-5.392zm-7.91 5.392c1.123 2.829 2.551 5.355 4.674 7.187 2.683-.67 4.271-2.434 5.75-4.312-1.144-3.53-3.146-6.201-6.47-7.549-.9 1.97-2.58 3.17-3.95 4.67zm-106.38 4.67c2.804-.304 3.922-2.135 6.469-1.796-.346-2.53-.202-5.548-1.438-7.189-1.98 2.7-3.86 5.5-5.03 8.99zm83.38-2.87c.179-1.53-.345-4.732-1.438-6.11-1.55 1.71.43 4.71 1.44 6.11zm44.56-3.24c.497-.015.789.169 1.082.36.151-.798.824-1.948-.363-2.156.27 1.11-.98.69-.72 1.8zm-74.39-1.08c1.529 2.904 3.381 5.484 4.313 8.985 1.969-.19 2.39-1.924 3.235-3.235 1.39.655 3.551-2.404 1.799-3.954-3.1.32-6.08-1.46-9.34-1.79zm22.64 2.16c1.007 1.629 1.574 3.697 3.592 4.312.69-2.141-.289-5.037-1.436-6.467-.29 1.14-2.37.5-2.15 2.16zm-46.36 46.72c2.875 3.016 10.047 5.943 12.939 2.158.035.69 1.34-.559 1.796.357 2.627-2.577 5.894-4.171 6.47-8.626.374-2.896-.368-6.142 0-9.345.523-4.542 2.702-8.096 3.234-11.86.831.713.401-.088 1.08-.357.682-3.691 1.45-7.555.717-11.144-.583-2.861-2.744-4.797-3.235-7.187-3.434-2.907-8.593-2.697-11.857-1.799-1.673 1.846-2.267 4.65-3.595 6.83-.356.585-1.126.766-1.436 1.439-.729 1.574-.954 3.273-1.799 5.031-1.401 2.91-2.639 5.095-3.952 7.906-.912 1.945-1.936 3.445-2.158 3.954-.758 1.74-.556 3.203-1.076 5.031-.325 1.132-1.328 2.39-1.799 3.595-1.334 3.404-2.103 5.882-4.314 7.905-2.843 1.322-4.316.029-5.391 1.799 1.196.96 2.803 1.513 5.034 1.437 1.661-1.36 2.632-3.13 3.951-3.952.021-1.179 1.021-1.374.72-2.875.717-.362 1.258-.897 1.799-1.438 3.878-8.713 6.347-18.605 9.701-26.956.925.957.515-.69 1.437-.719 1.328-5.347 3.293-5.633 9.348-5.75 1.299 1.296 2.653 1.743 3.592 2.875 3.106 3.747 2.252 10.927.72 15.455-1.013 2.998-2.29 4.955-2.875 7.906-.369 1.857-.015 3.823-.36 5.753-.471 2.639-2.176 4.853-2.155 6.827-1.193 1.479-3.765 2.913-4.671 3.234-2.007.711-4.03 2.264-6.113 1.799-.321-.073-1.906-.897-2.155-1.079-1.056-.775-1.846-2.281-2.875-3.235-1.176-1.091-2.311-1.717-3.235-2.515-2.16 3.25 2.31 4.5 2.54 7.56zm3.23-38.1c.664-1.255 1.428-2.407 1.439-4.314-1.872-.764-2.123-3.147-3.595-4.312-2.1 2.04-.17 7.61 2.15 8.62zm86.98-3.59c-2.065 1.615-7.312 3.329-6.113 6.11 4.537-3.252 11.065-4.51 14.017-9.345-3.65-1.11-5.9 1.66-7.91 3.23zm-16.17-1.8c3.826 7.09 10.117 16.879 6.107 27.315-2.34 2.451-5.153 4.426-7.903 6.47-2.521 5.628-7.142 9.149-7.549 16.892-1.179.562-1.585.532-2.519.719-1.895 3.074-4.117 6.342-6.826 7.547-1.869.833-4.332.257-5.75 1.079-.456-.857-1.603-.784-2.516-1.079-.965-.311-2.105-.919-3.595-1.076-.851-1.308-1.737-2.577-3.234-3.235-.512.688-1.366 1.029-1.437 2.155 4.586 4.048 10.764 5.619 16.172 5.391.576-1.343 2.267-1.564 3.951-1.796.287-1.044 1.091-1.305 1.799-1.799.787-.55 2.199-.9 2.875-1.436 1.954-1.551 2.989-4.832 4.312-7.549.988-2.024 2.41-3.952 3.234-5.751.363-.786.035-1.682.363-2.515.938-2.404 2.98-4.42 3.591-6.83 5.037-2.39 8.608-6.247 11.501-10.781v-5.03c-2.296-3.934-3.825-8.634-7.187-11.503-1.474-3.077-2.954-6.151-5.033-8.625-.09.48-.49.68-.33 1.43zm26.59 1.44c.36 1.711 1.211 3.776 1.437 6.11.315 3.267-.913 6.844.359 8.985 1.021-1.383-.009-1.322 2.155-1.796.536-5.888.688-14.282-2.872-15.814.91.71-1.39 1.22-1.08 2.52zm-100.63 9.71c.029-.231 1.538-2.042 1.439-3.595-2.472-2.08-2.656-6.449-5.031-8.625-1.22 3.81.89 11.24 3.59 12.22zm65.77-10.43c-.538 1.959-1.188 6.797 1.077 7.906.877-2.714 3.875-3.314 6.47-4.314-.463-1.574-1.068-3.004-1.796-4.312-2.7.12-3.09 1.22-5.75.71zm-32.35 3.24c1.226-.094 1.904-.734 2.159-1.799.678.685 1.591-.231 1.436-1.436-2.04-.62-3.24 1.16-3.6 3.24zm-40.97 3.23c.512 1.439 1.497 3.255 2.155 4.674.775 1.662 1.369 3.633 2.875 3.955 1.486-3.697-2.696-4.691-2.155-8.628-1.398-1.237-1.343-3.928-2.155-5.75-.626.029-1.117-.079-1.439-.36-.48 1.76.08 4.28.73 6.12zm22.28-4.31c1.523 3.507 3.759 6.306 5.75 9.345 2.48-4.69-1.81-12.58-5.75-9.35zm48.16-.72c-.456-.021-.497-.459-1.076-.36-.283.796-1.258.901-1.796 1.439-.076 4.507.444 8.418 1.437 11.86 4.81-1.61 1.12-8.46 1.44-12.94zm-75.47 5.75c.849 1.427 1.41 3.141 1.796 5.033 1.954 2.837 2.656 6.929 6.11 8.266 1.564-4.402-4.007-7.354-3.951-12.58-1.595-1.644-2.183-4.291-3.598-6.11-.74 1.18-.2 3.64-.36 5.39zm22.64-1.08c3.665 3.165 5.297 8.359 7.906 12.577 1.31-.605 1.644-2.191 1.438-4.312-3.387-3.706-4.788-7.853-7.546-12.58-.83 1.21-2.21 1.86-1.8 4.31zm-36.3-3.59c-.021-.219-.053-.427-.358-.359.015.494-.169.79-.36 1.079-6.993.523-9.741 7.195-15.814 9.702-1.599 4.51-6.07 6.148-7.188 11.144-.714.003-.457.979-1.438.716-2.953 5.435-6.301 10.472-11.141 14.02-2.311.684-4.202 1.787-5.392 3.592-4.029 2.465-9.859 5.489-14.735 3.954-3.859-4.577-3.958-10.17-2.157-16.892 2.422-3.407 4.411-7.084 8.267-8.625 1.655-.664 4.749.073 5.391-2.518-2.886-1.784-6.024.708-9.344 1.439.104 1.064-1.04 1.337-1.797 2.155-1.745 1.887-1.97 3.171-3.235 5.391-.703 1.237-2.056 1.96-2.515 2.878-1.015 2.016-1.435 8.079-1.08 10.422.641 4.217 3.938 7.282 7.189 9.345 1.898-.103 3.573.021 4.671.719.246-1.994 1.149.023 1.438 0-.105.009.372-.628.72-.719.823-.22 2.049.128 2.515 0 1.828-.509 2.836-1.91 3.955-2.875 1.75-1.513 2.517-1.665 3.953-2.876 1.168-.985 2.299-1.842 3.234-2.515.642-.465 1.097-.805 1.798-1.079 3.172-4.496 7.771-7.564 9.703-13.3 5.061-3.562 7.09-10.161 11.86-14.016.05-1.267 1.03-1.606 1.08-2.875 2.737-1.044 3.909-4.063 7.188-4.671 1.328-.249 2.739.176 4.672 0 3.179 1.615 4.311 5.271 5.391 8.985.579 1.185-1.252 2.542.359 2.515 4.35-3.84.83-17.76-6.83-14.73zm58.22.36c-1.088.833-2.156 3.182-3.232 4.671 1.507-.29 2.051-1.544 2.516-2.875 1.035 1.067.623-.901 1.799-.719.047-.471.053-2.601-.363-1.437.19 2.03-.53.21-.73.37zm2.88 2.51c-1.579 1.652-2.366 4.104-3.954 5.75-1.293.044-2.601 1.524-2.876 3.595.463.614.743 1.413 1.799 1.436 1.685-3.439 3.943-5.434 5.751-9.345 1.248.526 4.732-2.887 3.234-3.952-1.71.81-2.09 2.73-3.95 2.51zm61.46-.36c-1.21-1.711-.333 4.545-1.076 6.47-.959.43-1.567 2.583-2.158 3.952-.509 1.19-2.486 3.021-.72 3.594 3.2-.97 4.74-7.31 3.96-14.01zm-39.18 9.71c.217 2.126.368 4.917 1.796 6.11 1.135-.547 1.199-2.158 1.799-3.235-3.121-2.39-1.755-9.266-3.595-12.939-.5 2.89-.33 6.73 0 10.07zm-66.13 7.55c-1.023-.416.579-.416.72 0 .299-2.577-1.512-3.039-2.516-4.312-2.252-3.741-2.904-9.076-5.03-12.939 1.632 4.574-.942 11.407 2.872 14.016-.491.465-.354 1.562-.356 2.516.73.108.956.72 1.438 1.079.26-1.54 2.57.07 2.88-.37zm99.92-16.18c.81 4.96-5.131 7.672-1.437 11.141 1.149-3.106 4.812-7.318 2.516-11.5-.21.75-.57.76-1.08.36zm-50.32.36c-1.433 1.802-3.404 3.068-4.312 5.394-1.386-.331-3.012 4.136-2.878 6.827 1.019-.295.931.509 1.796.359-.176-1.135.649-1.269.363-2.515.45.079.73.559.719-.36 1.656-2.536 2.773-5.61 6.827-5.75.52-1.59-.41-3.89-2.52-3.95zm28.75.72c-2.594 3.755-5.013 7.683-6.47 12.58-2.188 2.123-3.74 4.885-5.391 7.546-.979-1.035-1.43 1.714-2.155 0-.941 1.237-.848 3.688-.359 5.394 1.182.767 2.088-.234 2.515-.72.146-.167.881.114 1.08 0 1.228-.702 1.664-.897 2.155-1.438 2.519-2.771 5.735-7.447 6.47-11.501 1.488-2.942 2.942-5.923 4.314-8.985 1.406-.866 2.708-1.84 3.591-3.235-1.57-.42-3.63-.29-5.75.36zm29.47 8.98c.778-2.281 1.568-7.061.363-8.266.48 3.13-1.37 5.82-.36 8.27zm-86.25 5.4c1.389.312 1.277-.878 2.155-1.076-.644-5.347-2.761-9.219-5.388-12.58h-1.082c-.14 4.8 4.01 8.12 4.31 13.66zm-47.8-8.63c3.656.41 6.554-.208 6.47-4.671-2.9.82-4.9 2.53-6.47 4.67zm8.62-.72c1.561-.125 2.005.869 3.234 1.077.745-2-.755-4.065-2.516-4.671-.45.97-.87 1.99-.71 3.59zm112.49-2.87v1.799c1.557.442 2.243-2.044 1.082-2.156.25 1.19-.74.58-1.08.36zm-137.29 2.15c-.652 1.023-2.195 1.158-3.593 1.436-.913 4.671-.11 6.789 3.233 5.75.665-.205 1.462-.711 2.157-.717 1.37-2.24-.02-5.28-1.8-6.47zm124 2.16c1.275.12.883.988 2.158.359-.485-.836.047-2.685-1.438-2.515-.21.75-.89 1.02-.72 2.15zm-35.22 7.55c.824 1.448 3.498 1.057 5.75 1.077 2.743-1.72 4.101-8.049.72-10.062-2.9 1.12-5.63 4.06-6.47 8.98zm40.61-6.47c-.72.36-.567 1.588-1.799 1.436-.146-1.05-1.231-1.167-1.799-1.796v3.952c2.234-1.08 3.849-.696 4.674-2.875-.784-1.012-1.343-2.25-2.158-3.232-.08 1.29 1.09 1.32 1.09 2.52zm-70.45 5.39c.761 1.761.173 4.674 2.156 4.671 1.312-4.524-1.001-8.271-2.156-11.5h-1.079c-2.38 3.02.03 4.38 1.08 6.83zm-64.69.36c.699-2.051-.567-4.51-1.438-6.11-.3 2.26-1.61 5.93 1.44 6.11zm22.29-5.03c-.029.011-.216.637-.359.719-1.55.892-2.793.942-4.313 1.799.198.521-.419 1.857.36 1.796 1.965.462 3.397-.702 4.672-1.079 3.28-.962 6.742.412 11.5-.36v-2.156c-1.605-.164-4.854-2.425-6.47-1.436-.019-.219-.053-.427-.358-.36-1.02 1.66-3.35.49-5.03 1.08zm105.3 6.47c3.683-.134 1.536-4.738 1.08-6.826-1.05 1.45-2.77 4.89-1.08 6.83zm31.27-3.6c-1.286.234-2.515 1.097-2.878 1.08-.141-.006.062-.875-.356-.72-.021.009-.562.977-.72 1.079-1.919 1.246-5.832 1.085-4.314 3.954 2.847-.874 6.648-1.968 9.346-3.954 2.994-.097 2.866-.359 5.03-1.439.386.813 1.352 1.047 1.799 1.798-.359.846-1.079 2.41-2.155 1.437-2.057 4.282-8.77 5.051-11.501 7.549-.761-.497-2.813.117-2.519 1.796 2.457.796 3.438-1.343 6.471-1.796.944-1.811 3.211-2.299 5.39-2.875.126-1.434 2.235-.884 2.516-2.155 3.276-1.278 5.882-3.227 6.113-7.549-4.54.42-8.82 1.18-12.22 1.79zm-23.72.36c-1.778 2.778-5.678 3.431-6.113 7.549-1.925 1.07-3.533 2.457-3.234 5.75-4.177 1.69-6.663 5.075-8.266 9.345.631.928 2.506.608 3.594 1.077.564-.272.535-1.139 1.437-1.077.415-.427.409-1.27.362-2.155 1.51.383 1.105-1.012 1.437-1.799.849-2.021 2.53-4.442 3.595-5.75 1.731-2.13 3.849-3.768 6.47-5.031 1.234-1.889 2.989-4.738 1.796-7.908-.36.01-.72.01-1.08.01zm-72.24 6.47c.287-2.442-.714-3.598-1.436-5.031-1.24 1.71.16 3.85 1.44 5.03zm-25.16-4.31c-.74 1.158.714 2.472.717 2.516.187 1.521-.708 2.623-.717 2.875-.006.12.854-.05.717.359-.053.167-.878-.064-.717.36.085.222.808-.117.717.356.009-.038-1.568 1.182-.717 1.799 1.328 2.717 3.787 7.002 7.187 5.391-.544-5.806-3.241-9.456-5.031-14.016-.45.13-1.81-.21-2.16.35zm-7.55 1.44c-.977.257.258-1.693-.719-1.437-.2.73.11 2.69.72 1.44zm2.52-1.08c-.047 2.203 1.244 3.065 2.514 3.952.819-1.079.158-3.083 0-4.312-1.07.62-1.82-.12-2.51.36zm-46.36.72c-1.388.661-3.901 1.354-5.032 1.799-1.581.62-1.603.591-3.233 2.156-4.485 4.302-7.114 17.355.358 19.049.899-1.138 2.98-1.094 4.312-1.799-.368-7.914 3.208-11.108 6.11-14.735 1.157-1.441 1.82-3.223 1.438-5.75-1.4-.91-2.7-1.33-3.96-.73zm17.6-.36c-1.104.4-2.455.661-3.234 1.079-3.098 1.667-8.257 5.426-10.423 7.549-2.766 2.712-5.914 6.017-4.671 11.141.947-.345 2.211-.62 2.875-1.438 1.556-1.916 1.35-5.364 2.875-7.546.347-.498 1.308-.556 1.797-1.08.731-.777.921-1.661 1.438-2.155 1.868-1.793 3.435-2.734 5.031-4.674 1.355-.339 2.069-.392 3.595.359-.13-1.14 2.5-2.75.7-3.23zm12.94 8.98c.077 1.315.493 1.38 0 2.518-2.061 3.449-4.047 6.974-4.672 11.86.931.387 1.335 1.299 2.515 1.437 1.847-8.936 5.516-16.049 7.907-24.44-.079-.28-.301-.415-.719-.359-2.01 2.65-3.29 6.05-5.03 8.98zm64.7-3.59c2.647.9 4.973-.479 5.031-3.235-.953-.318-2.983-.868-3.951-2.158-1.04 1.12-2.04 3.36-1.08 5.39zm-66.49 1.07c.795-1.416 3.062-4.601 1.797-5.75-2.51.38-5.46 4.37-1.8 5.75zm131.18 3.6c-.202 3.019-1.48 4.268-2.516 7.189-1.135-.872-1.532 1.392-2.516 1.796-3.79 2.372-6.671 4.062-11.857 3.594.176 1.136-.649 1.27-.362 2.516 1.626 1.082 3.498-.201 4.674-.72 1.1-.26 1.059.62 2.155.36 2.337-.901 3.647-2.819 6.47-3.235 3.048-2.901 5.169-7.244 5.751-12.937.242-2.39.195-5.086-.36-7.189-.494.015-.789-.169-1.076-.359-2.84 2.69-.14 5.8-.35 8.99zm-74.04-3.6c.831-.438.904-2.48 1.077-3.235-.12.527 1.204-1.755 0-1.796.362 1.083-.802.638-1.439.72-1.866 1.608-3.235 3.712-6.107 4.312-.269 1.828.357 2.758 1.437 3.234 1.19-1.38 3.46-2.38 5.03-3.22zm-47.8-2.15c2.498.146 1.898 1.377 4.672 1.436-.765-1.752-1.443-3.586-3.955-3.592-.2.75-.88 1.02-.71 2.15zm100.28 1.8c.07-.951 2.305-2.951.357-3.592-.52 1.16-2.54 2.77-.36 3.59zm-66.13 1.43c2.605 2.185 3.527 6.055 4.311 10.064 1.035-.044 2.354.196 2.878-.359-.283-4.511-1.117-8.471-4.313-10.064.254-1.811-.646-2.469-1.08-3.595h-1.076c-.2 1.37-.88 2.26-.72 3.96zm30.54-2.15c-2.469.245-5.317 4.203-7.903 1.796-.321.638-1.006.912-.72 2.155 3.797 1.454 9.015-.272 10.062-5.03-.979-.032-.722.6-1.438 0v1.08zm-89.13.36c-1.962 2.951-5.325 4.501-6.47 8.269 3.854-1.179 5.306-4.759 7.188-7.908-.08-.28-.3-.42-.72-.36zm11.86 9.34c2.226-2.852 1.246-7.312-1.078-9.345-2.73 2.15-.54 7.32 1.08 9.35zm94.53-8.27c1.349 3.706.325 8.769-2.875 8.626-.195 1.179.185 3.618 1.077 2.515.222-.157 3.363-1.962 4.313-3.592-.301-1.108-.582-3.354.72-2.518v-2.875c-1.843.047-.655-2.939-2.155-3.235-.21.52-.57.88-1.08 1.08zm-68.65 11.14c.155 2.773-.126 7.257-.72 10.064-.19.896-1.167 1.887-1.436 2.875-.334 1.211-.029 2.483-.363 3.595-1.208 4.06-4.315 7.684-5.389 11.501-.304 1.079-1.729 3.492.359 3.954 1.692-1.459 1.065-3.077 1.797-5.033 1.103-2.951 3.349-6.392 5.031-8.626.605-.801 1.699-1.655 2.155-2.515 1.434-2.691 2.96-10.896 2.159-14.735-.849-4.063-4.502-5.704-5.394-10.422-1.363.146-1.523-2.764-2.514-1.799 1.89 3.06 4.07 6.93 4.31 11.14zm56.43 10.43c-1.626-.129-1.646 1.149-2.875 2.155-2.237 1.316-6.502 1.849-8.266 2.516-2.19-.693-7.146-3.212-7.546-7.906-1.585-.023-2.937.179-3.235 1.439 1.901 4.486 5.102 7.76 8.623 8.985 1.941.672 5.498.766 7.908 0 1.393-.445 4.037-2.425 4.312-2.519 1.006-.334 1.428-.969 2.158-1.796 1.404-1.594 2.469-2.995 3.592-4.671.989-1.478 2.033-3.106 2.159-3.595.965-3.771-.685-6.104-1.439-8.985-.585-2.231-.351-4.771-1.796-6.47-.497.015-.79-.17-1.079-.359-.73 6.87 2 16.79-2.49 21.2zm8.26-15.1c.497-.576 1.772-.383 2.153-1.079-.117-1.319.31-3.182-.357-3.951-1.193-.441-1.126.021-2.878-.36-.48 1.56-.03 4.35 1.09 5.39zm35.22-1.79c.193 2.319-.009 5.037 1.796 5.751 1.802-1.393 4.344-4.297 3.592-9.346-2.78.21-3.58 2.41-5.39 3.6zm-26.23 3.23c.304 1.972 2.035 2.519 3.592 3.234 2.094-3.299 5.276-5.504 6.829-9.342-.079-.28-.301-.418-.72-.359-2.24 3.16-5.62 5.16-9.7 6.47zm49.96 4.67c1.755-2.816 2.062-8.107-1.079-11.141-.094.559-.787.248-1.079 0-1.17 2.655.228 6.18-.357 9.345-.751 4.06-3.39 6.563-6.112 8.266.026 1.77-.305 3.898 1.438 3.951 3.06-2.33 5.78-8.16 7.19-10.42zm-140.89-5.39c3.788 4.718 6.939 10.07 13.658 11.86 1.802-4.706-2.92-5.461-4.672-7.189-.535-.529-.553-1.544-1.078-2.155-.59-.69-1.321-.819-1.797-1.439-1.484-1.924-2.597-4.659-4.313-5.391-1.08.97-1.33 2.76-1.8 4.32zm37.74-1.79c-.009-1.07.032-2.188-1.079-2.155-.02 1.1.32 1.83 1.08 2.16zm92 5.74c-.912-.207-1.752-1.438-2.516-.716-.438 2.117 1.41 1.941 2.159 2.875.603 1.073.725 2.629 2.152 2.875 3.989-1.548 5.782-6.958 4.317-11.86-4.13-.59-5.28 2.6-6.11 6.82zm-140.52 3.6c2.432-3.846-1.207-7.514-2.875-10.421-1.78 3.82-.11 10.37 2.88 10.42zm49.95-7.55c.021-.62-.275-.921-.717-1.079-.01.63.28.93.72 1.08zm74.04.36c-.167 2.683.934 4.099 2.155 5.391 1.149-1.307.576-5.724-1.079-6.47-.19.52-.55.88-1.07 1.08zm-130.82 10.07c1.157 1.636 3.75 2.656 5.032 3.595 2.005 1.469 5.04 3.976 6.828 4.671 1.619 2.296 3.711 6.563 5.032 8.985.686 1.261 1.218 3.215 1.438 4.674.566 3.773 2.066 5.648 3.593 7.546 1.91 2.375 4.911 5.528 7.907 2.519 2.148 2.054 5.441 1.661 7.907 1.796 1.591-3.322 7.207-2.617 9.345-5.391 1.98-.62 3.606.023 5.391-.72 1.942.746 3.809 2.905 6.47 1.796.573 1.475 2.363.916 3.235.72 1.895-3.17-1.72-6.622-4.314-5.391-4.209-3.425-7.561-.997-11.141 1.08-.387.222-1.346.087-1.796.356-1.963 1.176-3.858 2.978-5.75 3.954-2.721 1.404-5.713.05-8.627.72-1.209-1.029-3.887-2.229-5.032-2.155-4.064-6.839-5.476-16.33-10.783-21.925-1.515-.614-1.818.216-2.875-.36-.11-1.088-1.111-1.283-.718-2.875-1.692-1.541-3.483-2.986-6.11-3.595-1.834-2.597-3.658-5.209-4.672-8.625-3.53 1.74-2.4 5.74-.37 8.6zm15.81-6.11c4.432 7.373 8.378 16.317 8.268 26.238 3.757-2.48 2.946-6.054 1.797-10.424-.503-1.91-.531-4.303-1.079-5.75-.604-1.598-2.53-3.212-3.233-4.674-.775-1.609-.666-2.077-1.438-2.875-.708-.105-.714.485-1.079.719-.136-2.258-1.16-3.633-2.516-4.671-.05.65-.24 1.18-.72 1.42zm25.16 2.51c-.573 1.117-.573 4.275 0 5.393 3.393.135 7.347-.389 8.625-1.799.318-.348.711-.044 1.079-.359 2.831-2.419-.544-4.168-1.799-6.467-1.78 2.92-4.16 4.8-7.9 3.24zm66.13-1.08c1.948.056 2.861 2.495 4.312 3.235.924.468 3.039 1.202 3.954 0-2.913-1.758-5.665-3.68-8.625-5.391-.62 1.27.25.88.37 2.15zm21.21 0c.532.188.907.532 1.437.72.471-1.073.015-2.401-1.079-2.875.26 1.11-.63 1.06-.36 2.16zm-45.65 2.88c2.041.267 4.381-.479 5.75 0-.123-1.321 2.065-.333 1.439-2.155-5.364-.321-8.277.497-12.221-2.519-1.88 2.98 2.66 4.37 5.03 4.68zm24.8 11.86c1.299-.021 1.743-.895 2.878-1.079.438-4.15-.755-6.675-1.439-9.704-1.941-1.17-3.548-2.68-5.391-3.952-.92 5.73 1.51 11.17 3.95 14.73zm-113.57-11.5c1.607 4.262 3.75 7.99 7.188 10.421.689-1.108 1.913-1.682 1.797-3.595-2.731-2.179-5.585-4.238-6.47-8.266-.512-.085-.605-.591-1.078-.719.07 1.29-1.69.72-1.44 2.17zm148.43 29.83c.695-1.45 2.655-2.439 3.595-4.313.622-1.246.529-3.355 1.079-5.031.324-.997.936-1.258 1.076-2.155.567-3.668.196-9.105-.36-12.939-.459-3.168-1.851-6.324-3.951-7.549h-.72c-1.403 2.729.986 6.938 1.439 11.503.743 7.52-.781 11.711-3.598 16.531-1.503.412-2.026 1.805-3.592 2.155.108 3.224-3.112 3.118-3.234 6.11 4.29-.3 5.35-3.53 8.26-4.32zm-61.1-22.29c4.124-1.425 7.163-2.103 9.348-5.75-6.048.239-12.105 1.249-15.454-3.595-2.88 4.16 1.93 8.77 6.1 9.34zm-61.81 2.16c-.04-4.633-2.656-6.686-3.953-10.062-3.79 4.09 1.71 7.64 3.95 10.06zm97.4-8.26c-.082-.638.362-1.799-.72-1.436-.1.82.08 1.35.72 1.44zm-17.62 3.59c2.111 1.243 1.623 5.087 4.313 5.751-.113-2.916-1.623-7.453-2.875-10.422-.3 1.73-1.9 2.17-1.44 4.67zm40.97-4.31c-1.132-.176-1.267.649-2.516.359-.046 2.919 1.697 6.847 3.235 9.345.325 1.234.211 2.904 1.439 3.235.58-5.62-1.21-9.93-2.15-12.94zm-149.87 2.15c5.076 14.159-8.213 17.736-9.345 29.111 1.828.974 2.517.137 3.953.719.613-.944 1.498-1.617 2.875-1.799.553-1.362 1.585-2.246 2.875-2.875.826-1.977 1.883-3.019 2.875-4.671.341-.567.803-.953 1.08-1.438 2.47-4.344-.264-7.572 1.438-12.937-2.251-1.945-2.744-5.643-5.032-7.55-.01.73-.99.47-.73 1.45zm61.46-.35c-.491 1.138-.076 1.202 0 2.515-2.937 3.829-1.047 9.582.36 13.656 2.594 1.363 3.922 3.986 6.829 5.034.772-1.527-.708-2.53-1.439-3.595-2.138-4.691-2.887-10.77-2.515-17.971-.076-.403-.398-.562-.72-.72-.7 1.08-1.7.8-2.52 1.07zm25.88 18.68c1.539.737 2.942 1.608 3.592 3.234 1.39.407 2.498 1.095 3.235 2.156 1.582-.026 2.937.178 3.234 1.436 5.733.428 6.417 3.674 10.781 5.394.041.916.661 1.258 1.082 1.796 2.334.185 3.901 4.241 8.622 3.235 2.826 1.193 4.625 1.693 8.266 1.436.205-.012 1.677-.755 1.799-.717.682.211-.459.945.36 0 .175-.201.812.34.72.36 1.658-.34 1.626-.816 2.155-1.079.383-.193 1.056.192 1.437 0 .977-.492 1.836-1.872 2.878-2.516.339-.214 1.073-.526 1.436-.72 1.208-.641 2.753-1.465 4.671-2.155 4.048-5.18 7.974-10.479 7.189-20.485-2.023-2.65-1.91-7.436-4.312-9.705-.251.708-.959.956-1.799 1.076 2.297 8.216 1.296 14.823-2.155 20.846-1.398 2.439-2.012 3.158-3.954 5.033-.813.784-1.746 1.925-2.516 2.516-4.972 3.825-11.319 3.194-16.175 2.155-.637-.137-1.708.146-2.155 0-.289-.094-.547-.994-.717-1.076-.57-.277-.971.243-1.438 0-2.054-1.073-3.092-2.085-3.954-3.595-6.848-.579-8.085-6.771-14.735-7.549-.284-2.24-4.011-1.937-5.391-2.875-.693-.468-.588-1.567-1.08-1.796-.444-1.164 1.165-.275.72-1.439 1.498.781 2.776 1.778 5.031 1.799.605 1.79 2.246 2.548 4.674 2.516.767 1.149 2.234 1.597 3.592 2.155 1.067 2.051 3.416 2.817 5.033 4.314 1.343.032 1.023.4 2.156 0 2.029 2.042 4.231 3.913 7.188 5.031 2.2-.904 2.483-1.437 5.031-1.08 1.094-1.202 3.328-1.494 4.674-3.234 1.094-1.416 2.6-4.606 2.872-6.467.356-2.428-.608-4.498-.717-7.189-3.554-.307-1.629 3.46-1.799 5.031-.345 3.272-1.881 8.058-5.03 8.984-.41.123-2.674.105-3.592 0-3.966-.444-7.728-2.396-8.985-5.03-1.477.135-2.74-1.387-4.674-1.796-1.816-3.253-5.317-4.507-7.189-6.83-.702.378-1.433.72-2.155 1.08-.512-.088-.605-.594-1.079-.72-.983 1.4-2.674.161-3.954.359-.658.103-1.06.813-1.797.717-.14 2-1.22 3.07-1.07 5.38zm35.58-13.66c.246-1.673 1.884-1.951 1.799-3.951-1.538-.284-1.466.05-2.875-.36 0 1.81-.14 3.74 1.08 4.31zm-129.02-1.07c2.688 7.719-3.785 10.529-6.83 17.97-.216.526-.134 1.513-.36 2.156-.265.757-.943 1.312-1.078 1.796-1.674 6.024 1.426 9.368 5.75 10.783 2.861-.494 3.395-3.316 7.188-2.875 3.277-2.234 5.287-5.735 8.267-8.269 1.426-7.402 10.954-11.015 8.985-19.406-3.074 2.425-5.259 6.172-7.188 9.705-2.015 3.688-4.13 7.555-5.75 11.5-3.043 1.58-6.733 5.896-10.782 5.75-4.049-.148-4.463-3.463-3.235-7.188.945-2.869 1.654-3.864 2.875-5.751 2.849-4.398 9.427-11.676 5.75-18.329-1.89.04-2.34 1.51-3.59 2.17zm44.92 5.75c.936-1.459 1.214-3.577 1.438-5.75-.742-1.176-1.819-2.016-3.595-2.158.18 3.17.82 5.89 2.16 7.91zm34.86 6.83c.833-.114 1.38.058 1.795.359v1.799c1.158.315.495-1.185 1.439-1.079-3.013-3.938-4.832-9.067-5.03-15.814-.983-.032-.726.6-1.439 0-1.69 6.35 1.43 10.7 3.23 14.73zm5.03-1.44c.918-2.077 2.56-3.434 2.878-6.11-1.942-1.529-3.604-3.606-4.674-6.829-1.07-.515-1.223.292-2.155-.359-1.3 4.39.49 11.34 3.95 13.3zm-23.72-12.22c-2.755 5.694-1.737 14.738 3.595 17.25.582-1.05 1.138-.14 1.799-.719.588-2.384-1.176-2.419-1.439-3.952-1.474-4.145-1.141-7.584-.719-12.579-.076-.404-.398-.562-.72-.72-.51.56-1.4.75-2.51.72zm81.95-.36c.778 2.939.343 5.093 1.079 8.266.535-.421.422-1.491 1.437-1.436.271.9.597-.044 2.155.72.27-3.147-.544-5.207-1.076-7.55-1.17-.35-1.85-.05-3.6 0zm-4.67 3.95c2.612.698.348 4.193 1.437 6.109 1.915-.956 2.094-6.92 1.079-10.064h-1.079c-.03 1.77-1.49 2.11-1.44 3.95zm-82.31-2.87c-1.252 2.773-2.118 6.903-4.674 10.422-.509.705-1.696 1.056-2.153 1.799-.977 1.576-3.229 7.522-3.236 8.266-.042 3.881 1.581 2.605 3.236 2.875-.274-7.321 4.092-10.808 7.903-15.455-.421-3.299.649-5.104.72-7.906h-1.8zm58.58 2.87c-.689-.869-.774-2.343-2.158-2.516-.44 1.86 1.56 3.96 2.16 2.52zm22.65 3.6c-.196-.524.418-1.86-.359-1.799-.49.46-.56 1.76.36 1.8zm-123.64 2.16c1.389-.05 1.473-1.404 1.439-2.875-.533-.188-.907-.532-1.439-.72.03 1.82-.45 2.06 0 3.6zm23 19.4c-1.385-2.737-3.622-4.879-4.672-8.266-.449-1.448-.219-3.174-.718-4.671-.329-.988-1.346-1.954-1.797-2.875-1.058-2.165-1.372-4.967-3.595-5.75-4.26 1.403-.67 4.334.36 7.546.88 2.743.719 7.022 1.438 9.345 1.026 3.319 3.388 5.955 3.953 7.905 1.893.501 6.742 2.562 7.189-.719.95-1.07-1.6-1.72-2.15-2.5zm50.68-14.73c-1.164 1.231-2.557 2.234-3.235 3.954-.988-.81-1.89.77-2.516 1.437-1.17-.094-1.729.427-1.795 1.438.585 3.01 3.199.478 4.674 1.08 1.356-1.998 3.41-3.3 5.39-4.675.813-2.661 2.472-4.475 2.516-7.905-.462-.857-1.611-1.026-2.516-1.439-1.06 1.8-2.09 3.65-2.51 6.11zm50.32-1.44c1.986 5.99 11.633 3.935 9.705-3.234-2.95.32-6.15 3.58-9.71 3.23zm-10.43 0c.152 2.363-.354 5.385 1.796 5.751 1.445-1.243 1.629-5.087 1.439-6.83-1.94-.5-1.51 1.37-3.24 1.08zm-103.5 5.03c.423-1.387-.294-4.408-1.797-5.031-1.5 1.75.52 3.93 1.8 5.03zm29.11 5.03c.813-4.387 3.855-7.052 5.031-10.062-3.28.86-5.33 7.72-5.03 10.06zm69-8.62c1.132 2.466 1.056 6.134 4.671 6.11-.497-2.136-1.152-4.118-1.796-6.11-1.5-.38-1.1-.15-2.87 0zm-103.87 3.23c-.004 4.7 3.58 7.648 7.547 7.189.044-1.603-.888-2.229-1.079-3.595-2.268.141-3.851-2.623-5.031-4.671-.35.48-.96.71-1.44 1.07zm43.13.72c-.041-.918-.658-1.258-1.076-1.796-.07 1.03-.04 1.96 1.08 1.8zm74.04 5.39c.556 1.003 1.921 1.193 2.515 2.155 2.601-1.95 5.826-3.275 6.47-7.186-1.895.4-5.024.084-6.829-1.439-.37 2.51-2.14 3.61-2.15 6.48zm-48.16 7.91c-1.644.532-3.258 5.797-1.079 5.753 1.516-3.381 5.967-10.018 3.595-16.175-4.11 1.33-.32 6.81-2.51 10.42zm10.06 1.08c2.299-1.655 3.276-4.633 3.235-8.626-1.618-.482-2.34-1.886-3.592-1.795-.95 3.16.02 7.36.36 10.42zm-15.81-7.19c.038 2.714.193 5.314 2.155 6.107.846-2.03 2.016-3.735 1.799-6.827-1.72-.62-1.89.82-3.96.72zm14.38 14.37c-.512.137-.605.43-1.08 0 .129 2.164-2.111 1.959-2.875 3.234-2.617-.211-2.688.907-4.671.36-.157 1.233.141 2.012.357 2.875 3.483.125 5.147-1.565 7.908-2.159 1.492-1.635 3.124-3.428 4.312-5.03.4-.535 1.062-.945 1.439-1.439.16-.207.128-1.521.359-1.796.226-.266.88-.021 1.079-.359 1.726-2.919 1.217-6.61 3.235-9.705-1.448-.134-.884-.228-2.159-.716-1.57 6.01-4.41 10.72-7.9 14.76zm35.22-12.58c1.775 1 1.629.091 3.234 0 .27-3.01-2.87-1.31-3.23 0zm-110.34-.35c-1.965 4.811-4.007 9.474-3.595 16.174.328 5.323 2.093 12.139 4.313 15.096.814 1.082 2.909 2.182 4.672 3.234 1.805 1.076 3.669 2.363 5.392 2.516 1.721.149 5.168-.547 5.75-.72.797-.234 1.492-1.311 2.516-1.796.314-.149 1.119.129 1.438 0 1.28-.518 1.739-1.073 2.517-1.799.998-.93 1.958-2.296 3.953-2.875 2.162-.629 6.473-.67 9.346-.359 1.208.131 2.802 1.611 3.234.359-.985-1.772-2.726-.38-3.954-.72-1.094-.298-2.136-1.544-3.592-1.796-.755-.129-1.778-.213-2.878-.359-.702-.094-1.475-.296-2.156-.36-2.007-.187-2.858.857-4.312 1.439-1.765.705-2.528.772-3.594 1.437-1.86 1.161-3.57 3.296-5.391 3.954-2.2.793-6.062.354-7.188-.36-1.054-.666-2.834-3.316-3.954-5.75-2.033-4.416-3.393-10.28-2.516-16.534.554-3.957 3.728-6.914 3.235-10.421-1.37 1.33-1.02-.73-3.24-.36zm43.13 11.14c.723.356 1.456.701 2.158 1.079.434 1.988-1.026 2.088-1.079 3.595 2.027 4.434 4.542 9.918 8.985 10.78 1.834-2.641-1.229-4.755-2.875-6.109.135-2.665-1.813-3.741-2.875-5.391-.22-.342.184-1.07 0-1.439-.396-.786-2.051-.286-1.437-1.436-.146-.866.655-.781.357-1.796-1.03-2.922-.939-6.97-1.797-10.064-.078-.281-.301-.418-.719-.359-2.53 2.17-1.03 7.7-.71 11.15zm42.77-3.59c-2.047 1.132-2.249 3.755-3.598 5.391-.421.512-1.315.573-1.795 1.076-.702.737-1.133 1.749-1.796 2.519-1.983 2.29-4.44 3.475-6.83 5.03-2.524-.27-3.887.95-5.75.359-.474.846-1.003 1.633-.72 3.235 7.263-.406 11.907-3.428 15.814-7.189.585.635 1.033-.205 1.439-.72 1.381-1.758 1.322-3.062 2.516-5.391.047-.09.965-.236 1.076-.359 1.579-1.734.748-5.938 1.438-8.266.793-.199.469-2.082 1.437-1.079-.275-1.161-.994-1.881-2.155-2.155.29 3.15-.91 4.83-1.08 7.54zm-35.94 3.95c2.832.275 4.914 1.146 7.903.359 1.076-2.252-.462-3.354-1.437-4.671-.73-.991-.815-1.45-1.436-2.158-.702-.799-.77-1.749-1.439-2.516-2.284-.351-3.457-1.811-5.75-2.155-.51 3.71.53 8.45 2.17 11.15zm-47.8 6.83c.619 4.806 3.467 9.103 5.392 12.221 3.769 1.863 7.66-.474 8.985-3.235-2.585-4.271-3.394-11.737-2.515-18.33-2.194-.201-3.16-1.632-5.032-2.155-.443-2.073-1.28-3.753-2.516-5.033-2.31 4.46-5.17 9.88-4.31 16.53zm58.22-8.99c.868 2.705 1.359 6.703.716 9.704-.503 2.369-2.901 4.016-2.152 6.827-1.349.535-1.088.594-2.878.359-1.334 2.659-4.077 4.335-7.189 4.674-1.667.182-4.721-1.436-5.75.717 3.133.05 6.914 1.717 10.784 1.079 2.062-1.293 3.978-2.729 6.47-3.595 1.4-3.158 3.278-6.546 3.231-10.421-.032-2.866-1.336-5.703-1.796-7.549-.971-3.92-1.696-6.505-3.234-8.985h-1.076c-.38 2.55 2.05 4.6 2.88 7.19zm-22.28-6.83c-.422 1.375-3.358.234-2.876 2.516 2.162 1.313 2.244 4.709 4.671 5.75.638-2.155-.491-5.437-.716-7.905-.33 1.97.02-.93-1.07-.36zm31.62 28.04c1.702-.512 3.656-.363 4.311-1.799 5.198-1.123 9.322-6.757 13.3-9.702 1.246-1.629 1.693-4.057 3.951-4.674 1.135-3.577 2.445-6.987 1.439-10.781-1.117-.474-1.023.097-2.516 0 .059 6.289-2.475 9.983-4.312 14.376-1.88.108-2.731 2.772-4.316 3.954-.161.12-.655-.225-1.076 0-1.328.705-3.53 3.232-4.674 2.156-2.341 2.176-6.172 2.978-9.343 3.954-.462-.5-1.696-.223-2.158-.72-.69 1.105-1.787 1.805-1.796 3.595 2.24 1.88 4.87.34 7.2-.36zm-48.52-24.8c-1.876 6.353-.14 12.972.718 19.409 2.293-.346 4.469-.805 6.831-1.079-1.217-6.625-1.333-11.86-1.082-18.69-2.32-.65-4.66-1.1-6.47.36zm8.63 11.14c1.714 1.521.456 6.014 2.515 7.189.422-4.896-.679-13.016.72-17.971-.515-.088-.608-.591-1.076-.72-2.57 1.97-2.05 7.04-2.15 11.5zm66.13-6.47c1.702 1.649 4.124 2.586 7.189 2.875.778-.86.948-2.726.356-3.954-1.415-.714-5.268-.564-7.186-1.796-.22.86-.52 1.64-.36 2.88zm-80.15 5.75c.199 3.65 1.22 8.936 3.595 9.702-.051-4.136-1.305-10.761-1.798-16.531-.079-.281-.301-.419-.718-.36-.64 1.97-1.21 4.57-1.07 7.19zm94.89-5.39c-.125 1.925.158 3.437.72 4.674 3.007 1.252 6.417-3.097 5.75-6.47-1.43 1.98-4.57.15-6.47 1.8zm-7.91 11.5c-2.086 1.047-3.194 3.114-4.671 4.311-1.144.928-1.039-.181-1.437 0 0 0-.538.597-.72.72-1.076.723-1.07.229-1.796.36-.175.032-.339.687-.719.719-1.65.129-3.323-1.132-5.751-1.079-.707-1.091-1.182-2.416-2.878-2.516-.567 2.589 4.967 4.648 6.113 3.595-.108.705.485.711.72 1.077 6.183.672 8.429-2.592 12.22-4.312.182-1.617 1.182-2.41 2.516-2.875 1.351-3.057 3.778-7.728 1.796-11.86-.896.056-1.112-.564-1.796-.72 0 5.37-2.05 8.72-3.59 12.57zm-61.1-5.03c.278-1.354-.438-1.717-.359-2.875-2.56-.883-4.364-1.956-6.11-4.312-.58 3.73 4.16 5.16 6.47 7.19zm53.19-2.16c.076-.403.397-.562.717-.72.359 3.045 4.75 2.346 6.47 2.159-1.74-1.942-5.005-1.504-7.187-3.595-.28.25-.8 2.01 0 2.16zm-43.84-.72c-.372 1.928.988 2.127 1.795 2.875 1.727-.792 3.435-.991 5.394 0 .252-.854.948-3.334-.362-3.595-1.14 1.39-4.59.45-6.83.72zm-15.46 11.5c5.341 1.164 7.814 3.387 13.296 1.799-.702-1.565-1.831-2.235-2.872-3.595-1.023-1.334-1.55-2.898-3.234-3.955-.275-.169-1.381-.31-2.516-.716-1.448-.523-1.135-.702-2.158-1.439-1.156-.831-2.369-1.293-3.235-2.155-1.03 3.27.2 7.21.72 10.08zm52.84-1.08c1.404.152 2.96.152 3.592 1.077 3.633-1.287 6.654-1.647 8.266-6.11-2.205-.009-5.329-1.366-7.546-3.231-1.97 2.32-6.89 4.63-4.31 8.26zm-34.87-5.38c.012 2.026 2.019 2.056 2.875 3.231.337-.734 1.483-.93 1.08-3.231-2.41-.13-2.07-.41-3.95 0zm-27.31 13.29c.985 4.735 8.187 3.074 9.704-.359-3.93.14-6.5-.67-9.7.36zm9.34 3.95c-.869.501-2.214.62-2.875.72-.837.123-1.951 1.407-2.156 1.437-.418.062-2.252-1.624-2.158 0 4.268 2.164 5.984-.249 11.144-1.079.594-1.568 3.401-1.998 2.516-3.952-3.02-.49-4.65 1.83-6.46 2.87zm-9.7.72c.082-1.521-1.284-1.594-1.797-2.519-.08 1.53.75 2.14 1.8 2.52z"/><path d="m111.43 92.02c.297 1.018-.506.933-.36 1.799-2.04.474-4.989.041-5.03 2.516-.892.465-1.745-.802-1.797 0-.208-1.591-1.039-2.557-1.438-3.955-.059-.418.079-.641.358-.719 2.97.084 4.64-.083 8.27.359z"/><path d="m95.975 19.419c.927 1.708 2.039 3.235 3.954 3.954 4.665-1.851 9.431-3.241 12.219-6.11.751-.152.952.246 1.438.36.145-1.486 1.073-.208 1.079-1.436 4.114-.442 7.069-3.952 10.063-4.314 1.781-2.24 4.127-1.921 5.75-3.954 5.95-.035 6.857-2.2 11.502-2.516 5.754-3.451 9.254-2.199 16.531-3.235.751-.105.726-.064 1.438-.719 4.773.222 8.924-2.094 13.656-.717.365-.234.371-.828 1.079-.719 9.138-.006 19.076-.015 28.751 2.155 1.539.345 3.259.012 4.675.36.672.167 1.456.927 2.155 1.079 2.767.603 5.847.395 8.266 2.156h2.875c1.422.67 5.484 3.074 6.47 2.156.805.994 2.071 1.524 3.954 1.439 2.334 1.843 5.405 3.682 8.266 3.954 3.112 3.598 9.354 4.06 11.86 8.266 5.958 2.428 9.38 7.394 15.096 10.062-.492 1.571 1.392.767 1.076 2.159 5.984 3.72 10.163 9.246 14.378 14.735 8.135 7.107 12.139 17.125 16.892 26.955 2.185 4.522 4.013 8.318 5.39 12.937 1.75 5.856 2.265 12.019 3.596 19.41.008.052.663-.05.719 0 .173.149-.699.804-.719.719.137.535.5-.251.719.36.567 1.58.547 4.674.717 6.827.635 7.926.729 18.824-.717 27.315-.131.766-.538.503-.719 1.079-.331 1.056-.138 2.352-.36 3.595-.93 5.238-3.565 9.733-3.235 14.735-.933.383-.503 2.129-1.436 2.515-.208 3.373-1.223 7.321-2.519 9.705-.242.45-.351 1.875-1.076 1.076-3.171 10.129-8.476 18.119-13.296 26.596-2.106.889-2.504 3.486-4.674 4.314-3.539 7.122-10.29 11.035-15.096 16.891-2.472.799-4.285 3.118-6.467 5.033-2.141 1.875-4.262 3.832-6.832 5.031-.387.933-1.562 1.073-1.796 2.155-4.814 1.772-7.672 5.508-12.939 6.83-3.147 2.963-8.453 3.764-12.22 6.109-4.622.729-7.988 1.601-11.139 2.875-10.137 1.158-20.21 3.306-31.629 2.875-1.954-.072-5.376-.438-8.266-.719-1.158-.111-2.626.172-3.595 0-2.396-.428-3.237-.857-6.829-1.437-1.343-.216-1.287-.912-2.516 0-2.205-1.173-4.923-1.208-7.907-2.158-.218-.067-1.083.178-1.438 0-.231-.114-.505-1.018-.718-1.076-.61-.167-1.617-.029-2.876-.36-2.958-.777-4.482-1.371-7.188-2.155-.32-.094-.769.123-1.078 0-.184-.073-.344-.717-.36-.72-1.355-.28-3.236.296-4.672 0-1.649-.339-2.834-1.19-4.312-1.799-2.365 1.182-4.253-1.19-6.468-1.076-3.99.205-5.78 4.332-9.345 5.03-1.755 3.03-4.84 5.44-7.907 5.391-1.911-.029-8.375-4.29-10.782-6.109-.129-.097-.731-.018-.718 0-.117-.167.16-.966 0-1.076-1.522-1.065-3.264-1.346-3.954-3.235-2.807-.312-4.165-3.978-6.11-3.954-4.698-7.763-13.403-11.516-16.891-20.486-.765-.553-1.338-1.298-2.157-1.795-1.138-2.577-3.11-5.499-5.031-7.909-1.544-1.937-3.375-3.401-5.392-5.391-1.173-1.158-2.016-2.478-3.953-2.516-.493-2.781-3.456-3.618-5.032-5.391-2.185-2.459-3.567-5.463-5.75-7.908-.84-.117-1.484-.43-2.157-.717-2.458-3.893-4.559-8.14-8.266-10.784-1.23-2.547-3.334-5.335-5.032-7.905-2.258-3.422-5.162-6.388-7.906-9.345-2.47-.767-4.193-2.278-5.392-4.314-3.321-.871-4.653-3.732-7.907-4.671-.458-1.893-2.572-2.123-3.593-3.235-.316-.345-.081-1.047-.36-1.438-.186-.258-.941-.352-1.078-.717-2.245-6.078 1.265-12.311 2.515-17.61 4.566-7.83 8.422-15.68 12.939-23.721 2.159-3.843 4.165-7.151 6.469-11.503.703-1.325 2.132-2.592 1.797-4.312 1.654-.143 1.277-2.316 2.875-2.515 3.469-7.494 9.128-13.823 14.017-20.489 2.091-2.849 5.44-6.201 8.266-8.985.196-.19-.126-.808.36-.717.249.044 1.552-1.772 2.515-2.875 1.528-1.749 3.327-3.442 5.032-5.394.78-.889 1.794-1.661 2.516-2.515.872-1.03 1.395-2.337 1.797-2.875 1.946-2.606 4.873-5.074 7.547-7.546 1.319-1.22 2.337-2.503 3.595-3.595 2.565-2.226 5.816-3.682 7.906-6.47 3.348-.795 6.555-3.653 10.423-3.954 1.597-.129 3.254 1.153 4.677-.006zm-37.738 122.2c.658-1.035.583-1.126.36-2.516h-1.438c-1.211-2.623-2.299-5.37-4.673-6.829-.589 1.152-1.202.915-2.515.72-.224-1.393-.297-1.483.36-2.519-2.754-1.196-9.097.368-14.735.359.49.945 1.323 2.852 0 3.595-2.083.403-1.543-1.813-2.157-2.875-2.09-.286-2.716.775-4.672 0 .081 1.278-.243 2.152-1.078 2.516-1.237-.202-1.786-1.091-2.157-2.156-7.03.375-13.114.875-19.408 2.156-2.28 2.407-5.329 7.025-2.156 10.783 3.343.173 9.218 2.062 12.938 2.876.86-1.714 3.266.032 3.595-1.799 3.89-.164 9.016-1.016 12.578-1.437.219-.859-.45-2.608.36-2.875h1.797c.414.424.407 1.27.36 2.155 2.568-.895 6.007.649 7.188-1.079-1.421-.073-1.989-2.53-.719-3.234.538.421 1.47.447 1.797 1.079.193 1.272-.581 1.573-1.078 2.155 1.973 1.029 5.076.497 7.906 0 1.195-.207 2.917-1.193 3.595-1.076.202.035-.095.737.36.717-.208.012 1.063-1.475 1.078-.357.291-.576 1.749-1.808 2.516-.719-.2.02-.41.31-.002.38zm119.32-138.73c-3.664-.12-7.646-.164-10.783.36-3.92.655-4.926-.088-7.546 1.079-2.357 1.047-3.743.626-5.75 1.076-.56.126-.869.907-1.438 1.08-.544.161-1.345-.129-1.797 0-1.619.459-2.858.754-4.313 1.076-1.448.322-2.4 1.921-3.595 2.518-.91.454-2.214.711-3.235 1.077-.39.14-.952-.176-1.438 0-.266.099-.716.951-1.078 1.079-.328.114-.468-.43-.718-.36-.087.026-.231.667-.359.72-.297.117-.518-.462-.72-.36-.224.111 0 .576-.358.72-5.532 2.196-9.693 3.893-13.657 7.546-1.463-.023-1.736 1.141-3.235 1.079-.95 1.565-1.764 2.047-4.312 2.516-1.364 1.272-2.264 3.007-4.672 3.235-.869 1.945-2.747 2.907-4.312 4.311-1.574 1.41-2.766 3.264-4.313 4.674-.885.805-2.145 1.1-2.875 1.796-.895.854-1.285 1.849-2.157 2.875-4.694 5.537-9.187 10.872-13.298 16.894-8.192 11.998-14.087 25.183-17.61 41.331-4.593 21.041-3.97 49.859 2.516 68.286 1.655 4.703 2.912 8.134 4.672 11.86.822 1.74 1.645 3.779 2.515 5.391 1.8 3.334 4.149 6.285 6.11 9.345 2.932 4.574 5.436 9.131 8.625 12.939 1.008 1.202 2.39 2.272 3.595 3.595 2.29 2.507 4.265 5.426 6.828 7.546 2.612 2.158 5.841 3.986 7.547 7.189 2.932 1.334 5.88 3.033 8.627 5.03 2.526 1.84 4.908 4.68 8.266 4.671.993 1.723 3.073 2.401 4.672 3.235 1.854.968 3.873 1.337 5.75 2.158 1.144.497 2.008 1.629 3.235 2.156 2.506 1.073 6.19 1.108 8.985 2.155 1.383.521 2.415 1.5 3.593 1.799 1.319.33 3.001 0 4.314.359 1.327.36 2.308 1.469 3.595 1.796 2.12.541 4.533-.021 6.826.36.182.029 2.173.547 1.796.359.283.141-.111.626.362.717.764.149 2.322-.173 3.235 0 1.459.277 2.784.944 4.311 1.079 2.439.217 5.175-.176 7.909 0 1.41.091 2.884.614 4.312.72 6.832.503 11.249-1.208 16.894-1.079 1.428-.948 7.552-.603 10.421-2.156 2.235.369 5.73-.927 7.906-1.796 4.388.308 6.785-3.004 10.781-3.234 1.808-1.664 4.159-2.779 6.112-3.595 2.866-1.199 4.159-2.296 6.47-3.595 1.677-.944 3.309-1.544 4.671-2.516 1.431-1.018 2.598-2.076 3.952-3.234 1.217-1.039 2.55-2.627 4.313-2.875 4.464-5.722 11.58-8.786 15.455-15.096.972.407.746-.189 1.437-.72 1.685-1.289 2.369-2.229 3.598-3.954.771-1.085 1.386-2.617 2.152-3.592.787-.997 2.088-1.623 2.878-2.515 1.588-1.799 4.083-4.979 4.671-7.189.144-.529.441-.05.72-.36 1.214-1.359 1.998-3.111 2.875-5.03 1.884-4.13 3.434-8.192 5.75-11.86 1.562-4.99 3.539-9.312 5.031-15.095.327-2.975 1.149-8.064 2.878-10.784 4.387-22.363 2.07-49.342-4.317-68.646-2.966-4.499-4.13-9.866-6.826-14.375-2.714-4.54-5.306-8.897-7.909-13.299-1.941-1.05-2.966-3.019-4.671-4.312-.664-3.047-3.454-3.975-4.313-6.829-1.39.193-1.48-.916-2.516-1.077-1.998-2.901-4.744-5.557-7.546-7.909-2.729-2.29-5.423-5.045-8.626-6.11.138-1.217-1.591-.564-1.079-2.156-4.194-1.108-6.107-4.311-8.985-6.11-.392-.246-.895-.427-1.438-.72-1.211-.652-2.706-1.243-3.592-1.796-1.123-.699-1.617-1.223-2.159-1.439-1.123-.447-.836-.225-1.436-.716-.281-.234-.971.038-.717-.72-4.188-.053-5.58-4.074-10.424-3.595.342-1.661-2.34-.298-2.158-1.796-4.99-.497-9.605-3.121-14.736-4.314-3.132-.729-6.867-.465-10.061-1.436-.585-.178-.764-.605-1.439-.72-7.254-1.246-16.017-1.12-21.925-1.079-.32-.038-.39.255-.68.322zm-85.898 19.05c-3.35.623-4.665 2.299-8.625 2.875-2.035 3.235-6.106 4.437-8.267 7.546-.877.678-2.475.641-2.156 2.515 1.161.828 2.144-.898 3.235 0 .399-.918 1.097-1.539 2.156-1.796 1.579 1.498 5.781.635 8.625.36.642-.848-1.049-3.551 1.439-3.235 1.417-.1.104 2.53 1.078 2.875 1.767-.982 4.089.179 5.75-.359.227-2.425.483-4.894 0-8.625-1.968.169-1.663-1.931-3.235-2.156zm-25.517 17.61c-2.107 3.642-5.689 5.812-7.188 10.062 4.115-.916 8.026-1.182 11.5-2.155.898-.252 1.54-.983 2.517-1.08.847-.082 1.715.594 2.515.72 1.663.266 1.957-.188 2.875-.36 1.604-.298 3.75-.097 5.032 0 .237-.959.151-2.243.718-2.875 1.515-.076 1.267 1.608 2.157 2.158 1.711-1.685 5.518-3.729 3.593-6.829-.289.436-2.193.541-2.155-1.08-.208-1.764 2.271-.842 2.515-2.155-6.8-.308-17.231 1.749-24.079 3.594zm2.515 10.421c-.181 1.018-1.022 1.375-1.796 1.799-.567-.032-.282-.918-1.079-.72-4.76 1.635-10.619-.21-12.938 4.312 1.479.579 3.207-.57 5.391-.357.62-1.357 2.985-.576 4.672-1.079 2.17-.649 3.937-.5 6.47-.72.807-.07 1.312-.646 1.797-.72 2.794-.406 6.37 1.784 8.985 0 .894-.055 1.113.565 1.797.72.69-.506.649-1.746 1.078-2.515-5.676-2.428-8.674-1.062-14.377-.72zm5.392 12.58c-1.205-.479-2.315-2.992-.36-3.594.473.368 1.325.354 1.797.719.254-1.93-.409-2.945-.719-4.314-1.774-.015-2.437-.073-3.233-.357-.195 1.272 1.272.883 1.078 2.156-.563.875-1.43 1.445-2.875 1.436-.585-1.158-.173-1.945 0-3.235-2.632-.038-4.074.281-6.47 1.079-.079 1.158.636 1.521.36 2.875-1.155-.316-.493 1.185-1.438 1.08-1.295-.877-.076-3.109-.719-3.955-.566 1.173-1.711.474-2.875.36-.037.921-1.34.576-1.797 1.079-2.302-.646-2.878.72-6.468.36-2.884 3.103-6.043 5.938-8.267 9.702 7.797.968 18.842-2.928 23.72-1.436 2.501-1.164 5.553-.579 7.548-.36 1.581-.348 3.526-4.817 1.797-5.031.904.36-.978.898-1.079 1.436zm-17.611 7.549c-.564-.155-.307-1.132-1.438-.72-2.507.649-4.719.281-6.83 1.796-2.382-.813-3.658-.085-4.672.36-.54.237-.913.131-1.438.36-5.749 2.486-10.176 8.04-12.22 13.299.72 1.077 1.898 1.697 3.235 2.156-.219-1.418 1.974-.424 2.875-.719.082-1.506 1.141.21 1.438-1.08 3.944.383 10.146-2.597 14.736-2.515 1.267-1.486 5.135-.375 7.546-.72.351-.845 1.024-1.372 1.439-2.155 1.127 1.588 2.103 4.147 5.031 2.875 2.568-3.785 1.227-9.108.36-14.016-5.085-.132-6.027-1.018-10.062 1.079zm5.75 16.172c-1.636-1.749-2.511-1.41-5.032-1.077-1.065-1.503-2.204-.111-3.235 0-6.284.673-11.173 2.255-16.173 3.592-.63.17-2.903.717-2.875.72-.177-.015.089-.804-.36-.72.174-.032-.395.752-.358.72-1.356 1.176-5.329-.006-7.189.36-.353 1.573-3.067 2.67-1.796 4.671 6.442-1.647 8.636-.345 14.375-2.875-.747-1.349-.007-2.39 1.078-2.875.794.646.877 1.998 1.438 2.875 1.496-.778 3.576-.977 5.75-1.077.333-.866.657-1.74 1.08-2.515 1.067.249 1.455 1.179 2.155 1.796 3.228-2.121 9.003-1.354 13.298-1.08.328-.795.798-2.393.36-2.875-.955.003-2.052-.135-2.516.36zm-26.595 8.984c-2.285 2.036-6.995.746-9.345 1.799-1.534.685-2.898 2.846-3.954 3.232-.714-.597-.457.035-1.438 0-1.3 2.293-2.684 4.504-3.593 7.189.854.825 1.544 1.811 2.875 2.156 5.567-.901 12.002-1.98 18.688-2.516.848-.111.669-1.249 1.797-1.076.004 1.404.44.152.719 0-.369.202.69.003.718 0 3.979-.483 7.619.09 11.502-.36.145-.933 1.119-1.039 1.796-1.439 2.089.667 2.398 1.223 4.672.719.801-2.313 1.604-4.627 1.797-7.549-1.578-.676-.726-2.761-1.438-3.952-.656-1.1-2.435-.409-2.515-2.158-8.167.234-15.175 3.329-22.281 3.963zm6.828 14.736c-.294-.904-1.896-.5-2.516-1.076-4.068 1.805-11.693 1.442-15.814 3.235-3.849-1.621-8.491 2.553-12.22 4.311-.927 2.068-2.84 3.15-3.233 5.75 3.14 5.858 11.464 1.105 17.251 1.439.5-.459.156-1.761 1.078-1.799 3.543 1.375 4.334-.339 7.547 1.079.044-1.515 2.758-.356 3.955-.719.301-.895.469-1.925.358-3.235-1.786.348-2.334-.541-2.156-2.156.36 0 .427-.292.718-.36.894-.052 1.491.188 1.797.72v2.156c1.237.202 1.786 1.091 2.157 2.155 2.363-.084 4.535.018 6.468.36.266-1.556-.812-2.226.36-2.875h1.438c.494 1.088-.171 1.284 0 2.875 4.043.105 5.262.833 8.625 1.439.684-2.67.784-5.926.719-9.345-1.009-1.518-1.598-3.232-2.875-3.595-.44.998-.523 2.352-1.438 2.875-.107-1.451-1.594.24-1.797-1.436.108-1.53 2.15-1.524 1.078-3.235-3.579-.05-8.021-1.24-11.5 1.45zm-37.018 21.21c.512.14.605.433 1.078 0 .762.269 1.538-.529 2.515-.72 1.831-.352 3.675.23 5.75 0 1.243-.138 2.695-.857 3.955-1.076 1.44-.252 2.872-.22 4.312-.36 9.716-.944 18.864-2.562 27.315-1.438 3.066.409 5.506 1.021 8.266 1.079.903-2.82-1.25-2.577-2.875-3.235-2.692-1.088-7.607-1.352-12.578-1.436-2.552-.047-4.115.833-6.11 1.076-1.891.231-3.836-.234-5.752 0-1.041.129-2.207.916-3.233 1.079-.4.064-1.186-.386-1.438-.359-.839.09-1.439.643-2.157.719-3.917.404-7.148.696-10.422 1.436-3.115.705-7.728-.959-8.985 2.516-.003.36.29.42.359.72zm44.566 14.37c-2.097.214-4.167.237-5.75.72-.621.19-2.96-.459-4.312.359.168-1.477-.904.281-1.438-.719-2.747 1.029-4.624 1.006-8.627 1.079-.566.032-.281.915-1.078.72-5.104.345-7.875.795-12.579 2.515-.253 1.065-1.072 1.565-.719 3.235 2.916 3.074 7.502 4.478 9.345 8.625h11.141c.481-.359.706-.971 1.438-1.079 3.176.474 5.559-1.261 8.267-1.796 5.265-1.044 10.449-.196 15.455-.359.916-3.445-.79-7.02-1.797-9.705-2.1-1.205-2.619-1.778-4.312-3.234-1.272.827-1.374 2.857-2.875 2.515-.614-.345-.788-1.129-1.079-1.796.66-.798 1.479-1.185 2.517-.719-.193-1.91-2.537-.46-3.597-.35zm-6.11 17.25c-5.558 1.088-8.771 2.22-14.735 2.875.177 6.725 6.77 1.582 10.422 1.437 2.947-2.139 6.498-1.893 10.063-2.516.51-.088.611-.582 1.078-.72 1.404-.412 5.236-1.299 7.189-1.436 1.561-.111 4.051 1.682 4.672-1.08-6.433-.03-11.99.13-18.689 1.44zm.719 4.68c-1.957 1.518-4.944 2.004-7.547 2.875-1.609 2.765-2.832 5.797 0 7.549.244.149 1.742-.4 2.515 0 .323.167.278.98.718 1.077-.227-.05.316-.717.719-.72.971-.003 2.988 1.465 5.032 1.438 2.005-.026 4.183-1.597 5.391-1.438.19.026-.098.804.36.72-.136.026.35-.711.359-.72 1.215-.846 2.786-.182 3.953-.357 3.533-.535 6.86-2.199 10.063-2.518.158-1.234-.142-2.013-.36-2.875-4.026.049-6.671-4.005-8.625-7.187-3.508 1.39-7.275 2.54-12.578 2.15zm17.251 12.58c-.063-1.428-.355-.123-.718 0-2.484.836-7.572-.509-8.985 1.436-.327-.982-1.26.638-1.797-.359-.174.427-.383.816-.72 1.079-1.992-.471-4.937.991-5.75 2.875v1.079c2.082 2.109 3.934 4.452 5.75 6.83 1.265.649 2.2-.579 3.235-.72.023-.003.836.749 1.078.72-.039.003 1.239-.544 1.797-.72 1.471-.465 1.926-.418 2.875-1.079.143-.1 1.018-.352 1.078-.36 3.235-.497 5.291-1.541 7.907-1.076 1.717-1.354 2.52-1.412 5.032-1.799-.466-5.282-6.799-4.7-8.267-8.984-1.389.12-1.417.19-2.515 1.07zm11.86 10.78c-3.815.869-6.939 1.729-10.782 2.159-1.117 1.261-3.113 1.603-4.312 1.076-.351.368-.711.729-1.078 1.079-2.387-.073-2.596.231-4.312.359.003 1.313.709 1.925 1.438 2.516 1.259.299 3.387-1.562 5.031-.72 3.51-3.029 9.684-2.488 12.939-5.03.74-.22 2.497.579 2.156-.72-.107-1.27-.975.01-1.08-.73zm6.11 7.9h-1.797c-.339-2.281-5.742-4.273-6.468-2.519-4.382.532-7.812 2.013-11.143 3.595-.985.544-2.063-.436-2.515 1.079 3.391 2.118 5.556 5.467 7.906 8.626 3.269 1.018 4.623 1.723 8.627 1.079 2.237-2.246 6.879-1.837 10.423-3.954-.868-3.46-3.901-4.74-5.033-7.92zm4.673 11.86c-3.664-.167-6.292 1.989-10.783 2.875-.241 1.679-1.796 2.486-1.797 3.951-.002 1.854 1.932 2.756 2.157 4.674 5.235-.807 8.452.431 12.938-1.079.081-.026-.068-.649 0-.72.136-.134.538.264.36.36 1.429-.787 2.84-.579 4.672-1.437 1.54.422 1.465-.026 2.875-.359-1.142-6.13-8.568-3.29-10.422-8.26zm12.938 10.43c-5.749 2.346-10.629 3.425-19.408 3.954.325 2.341 2.986 1.805 4.312 1.796 1.756-.012 3.592-.812 5.032-.359 2.135-.988 5.481-1.226 8.625-1.796 1.538-.277 3.704.22 4.312-1.079.74-1.34-2.12-2.47-2.877-2.51zm2.877 8.98c-2.294-.085-3.829-1.896-6.11-2.155-4.37-.501-8.533 2.989-11.5 1.436-.312 2.349 1.265 2.811 2.515 3.595.951 3.004 4.047 3.861 5.392 6.47.423.056 1.02-.062 1.078.359 6.341-1.506 9.2-4.475 15.095-5.03 1.204-1.995 3.761-.477 4.672-2.519.149-.997-2.396-2.387-3.594-3.231.249.965-.743.693-1.078 1.076-1.75-1.78-4.7-1.6-6.47-.02zm5.39 7.55c-4.04.731-6.932 3.106-10.423 3.951.872 2.194 3.875 3.996 5.391 5.034 2.194 1.5 4.7 2.629 7.188 3.951 5.819-.889 8.138-5.279 7.189-12.937-4.62-1.27-6.65 1.36-9.35.01z"/><path d="m151.68 54.283c.826.834 1.092-.155 2.875.72.54 3.194 1.853 5.218-1.438 6.467-.345-.945-.695-3.077 0-3.952-.271-.482-2.659-.652-2.516-.359-1.08-.998.77-2.095 1.08-2.876z"/></svg>